#N canvas 415 303 908 434 10;
#X obj 470 11 cnv 15 204 400 empty empty scope 20 12 0 12 #bbbbbb #000000
0;
#X obj 677 11 cnv 15 204 400 empty empty spectr 20 12 0 12 #bbbbbb
#000000 0;
#X obj 263 11 cnv 15 204 400 empty empty window 20 12 0 12 #bbbbbb
#000000 0;
#X obj 20 10 cnv 15 240 70 empty empty n_sa~ 20 12 0 12 #bbbbbb #000000
0;
#N canvas 615 96 358 498 gen 0;
#X obj 126 432 outlet~;
#X obj 102 244 vradio 15 1 1 5 empty empty empty 0 -8 0 10 #fcfcfc
#000000 #000000 0;
#X text 118 242 sin;
#X text 118 258 tri;
#X text 118 273 saw;
#X text 118 288 pls;
#X text 118 303 noise;
#N canvas 0 16 450 300 sin 0;
#X obj 187 60 inlet;
#X obj 276 76 inlet;
#X obj 276 99 == 0;
#X obj 276 122 switch~;
#X obj 186 213 outlet~;
#X obj 187 137 osc~;
#X msg 187 91 \$1 25;
#X obj 187 114 line~;
#X connect 0 0 6 0;
#X connect 1 0 2 0;
#X connect 2 0 3 0;
#X connect 5 0 4 0;
#X connect 6 0 7 0;
#X connect 7 0 5 0;
#X restore 15 323 pd sin;
#X obj 102 131 nbx 4 14 -1e+37 1e+37 0 1 empty empty pitch 0 -8 0 10
#fcfcfc #000000 #000000 52.2131 256;
#X obj 42 146 mtof;
#X obj 102 162 nbx 4 14 -1e+37 1e+37 0 1 empty empty freq 0 -8 0 10
#fcfcfc #000000 #000000 166.855 256;
#X obj 183 179 ftom;
#X msg 183 202 set \$1;
#X obj 102 193 nbx 4 14 -100 100 0 1 empty empty pw 0 -8 0 10 #fcfcfc
#000000 #000000 11 256;
#X obj 174 296 * 0.01;
#X obj 102 226 nbx 4 14 -9999 9999 0 1 empty empty level 0 -8 0 10
#fcfcfc #000000 #000000 100 256;
#X obj 282 303 * 0.01;
#X obj 126 410 *~;
#X msg 282 326 \$1 25;
#X obj 282 349 line~;
#N canvas 0 16 450 300 tri 0;
#X obj 187 60 inlet;
#X obj 276 76 inlet;
#X obj 276 122 switch~;
#X obj 187 255 outlet~;
#X msg 187 91 \$1 25;
#X obj 187 115 line~;
#X obj 187 137 phasor~;
#X obj 187 160 -~ 0.5;
#X obj 187 183 abs~;
#X obj 187 229 -~ 1;
#X obj 276 99 == 1;
#X obj 187 206 *~ 4;
#X connect 0 0 4 0;
#X connect 1 0 10 0;
#X connect 4 0 5 0;
#X connect 5 0 6 0;
#X connect 6 0 7 0;
#X connect 7 0 8 0;
#X connect 8 0 11 0;
#X connect 9 0 3 0;
#X connect 10 0 2 0;
#X connect 11 0 9 0;
#X restore 63 327 pd tri;
#N canvas 0 16 450 300 saw 0;
#X obj 187 60 inlet;
#X obj 276 76 inlet;
#X obj 276 122 switch~;
#X obj 187 255 outlet~;
#X msg 187 91 \$1 25;
#X obj 187 115 line~;
#X obj 187 137 phasor~;
#X obj 187 160 -~ 0.5;
#X obj 187 206 +~;
#X obj 276 98 == 2;
#X connect 0 0 4 0;
#X connect 1 0 9 0;
#X connect 4 0 5 0;
#X connect 5 0 6 0;
#X connect 6 0 7 0;
#X connect 7 0 8 0;
#X connect 7 0 8 1;
#X connect 8 0 3 0;
#X connect 9 0 2 0;
#X restore 113 333 pd saw;
#N canvas 0 16 450 300 pls 0;
#X obj 187 60 inlet;
#X obj 363 80 inlet;
#X obj 363 126 switch~;
#X obj 187 255 outlet~;
#X msg 187 91 \$1 25;
#X obj 187 115 line~;
#X obj 187 137 phasor~;
#X obj 187 160 -~ 0.5;
#X obj 187 185 +~;
#X obj 363 102 == 3;
#X obj 279 88 inlet;
#X msg 277 113 \$1 25;
#X obj 277 136 line~;
#X obj 187 218 expr~ if($v1 > $v2 \, 1 \, -1);
#X connect 0 0 4 0;
#X connect 1 0 9 0;
#X connect 4 0 5 0;
#X connect 5 0 6 0;
#X connect 6 0 7 0;
#X connect 7 0 8 0;
#X connect 7 0 8 1;
#X connect 8 0 13 0;
#X connect 9 0 2 0;
#X connect 10 0 11 0;
#X connect 11 0 12 0;
#X connect 12 0 13 1;
#X connect 13 0 3 0;
#X restore 160 330 pd pls;
#N canvas 0 16 450 300 pd 0;
#X obj 363 80 inlet;
#X obj 363 126 switch~;
#X obj 187 255 outlet~;
#X obj 187 219 noise~;
#X obj 363 102 == 4;
#X connect 0 0 4 0;
#X connect 3 0 2 0;
#X connect 4 0 1 0;
#X restore 203 329 pd pd noise;
#X connect 1 0 7 1;
#X connect 1 0 20 1;
#X connect 1 0 21 1;
#X connect 1 0 22 2;
#X connect 1 0 23 0;
#X connect 7 0 17 0;
#X connect 8 0 9 0;
#X connect 9 0 10 0;
#X connect 10 0 7 0;
#X connect 10 0 11 0;
#X connect 10 0 20 0;
#X connect 10 0 21 0;
#X connect 10 0 22 0;
#X connect 11 0 12 0;
#X connect 12 0 8 0;
#X connect 13 0 14 0;
#X connect 14 0 22 1;
#X connect 15 0 16 0;
#X connect 16 0 18 0;
#X connect 17 0 0 0;
#X connect 18 0 19 0;
#X connect 19 0 17 1;
#X connect 20 0 17 0;
#X connect 21 0 17 0;
#X connect 22 0 17 0;
#X connect 23 0 17 0;
#X coords 0 -1 1 1 54 224 1 100 100;
#X restore 27 84 pd gen;
#X obj 33 319 r \$0-to;
#N canvas 615 96 358 498 gen 0;
#X obj 126 432 outlet~;
#X obj 102 244 vradio 15 1 1 5 empty empty empty 0 -8 0 10 #fcfcfc
#000000 #000000 0;
#X text 118 242 sin;
#X text 118 258 tri;
#X text 118 273 saw;
#X text 118 288 pls;
#X text 118 303 noise;
#N canvas 0 16 450 300 sin 0;
#X obj 187 60 inlet;
#X obj 276 76 inlet;
#X obj 276 99 == 0;
#X obj 276 122 switch~;
#X obj 186 213 outlet~;
#X obj 187 137 osc~;
#X msg 187 91 \$1 25;
#X obj 187 114 line~;
#X connect 0 0 6 0;
#X connect 1 0 2 0;
#X connect 2 0 3 0;
#X connect 5 0 4 0;
#X connect 6 0 7 0;
#X connect 7 0 5 0;
#X restore 15 323 pd sin;
#X obj 102 131 nbx 4 14 -1e+37 1e+37 0 1 empty empty pitch 0 -8 0 10
#fcfcfc #000000 #000000 62.2131 256;
#X obj 42 146 mtof;
#X obj 102 162 nbx 4 14 -1e+37 1e+37 0 1 empty empty freq 0 -8 0 10
#fcfcfc #000000 #000000 297.302 256;
#X obj 183 179 ftom;
#X msg 183 202 set \$1;
#X obj 102 193 nbx 4 14 -100 100 0 1 empty empty pw 0 -8 0 10 #fcfcfc
#000000 #000000 11 256;
#X obj 174 296 * 0.01;
#X obj 102 226 nbx 4 14 -9999 9999 0 1 empty empty level 0 -8 0 10
#fcfcfc #000000 #000000 100 256;
#X obj 282 303 * 0.01;
#X obj 126 410 *~;
#X msg 282 326 \$1 25;
#X obj 282 349 line~;
#N canvas 0 16 450 300 tri 0;
#X obj 187 60 inlet;
#X obj 276 76 inlet;
#X obj 276 122 switch~;
#X obj 187 255 outlet~;
#X msg 187 91 \$1 25;
#X obj 187 115 line~;
#X obj 187 137 phasor~;
#X obj 187 160 -~ 0.5;
#X obj 187 183 abs~;
#X obj 187 229 -~ 1;
#X obj 276 99 == 1;
#X obj 187 206 *~ 4;
#X connect 0 0 4 0;
#X connect 1 0 10 0;
#X connect 4 0 5 0;
#X connect 5 0 6 0;
#X connect 6 0 7 0;
#X connect 7 0 8 0;
#X connect 8 0 11 0;
#X connect 9 0 3 0;
#X connect 10 0 2 0;
#X connect 11 0 9 0;
#X restore 63 327 pd tri;
#N canvas 0 16 450 300 saw 0;
#X obj 187 60 inlet;
#X obj 276 76 inlet;
#X obj 276 122 switch~;
#X obj 187 255 outlet~;
#X msg 187 91 \$1 25;
#X obj 187 115 line~;
#X obj 187 137 phasor~;
#X obj 187 160 -~ 0.5;
#X obj 187 206 +~;
#X obj 276 98 == 2;
#X connect 0 0 4 0;
#X connect 1 0 9 0;
#X connect 4 0 5 0;
#X connect 5 0 6 0;
#X connect 6 0 7 0;
#X connect 7 0 8 0;
#X connect 7 0 8 1;
#X connect 8 0 3 0;
#X connect 9 0 2 0;
#X restore 113 333 pd saw;
#N canvas 0 16 450 300 pls 0;
#X obj 187 60 inlet;
#X obj 363 80 inlet;
#X obj 363 126 switch~;
#X obj 187 255 outlet~;
#X msg 187 91 \$1 25;
#X obj 187 115 line~;
#X obj 187 137 phasor~;
#X obj 187 160 -~ 0.5;
#X obj 187 185 +~;
#X obj 363 102 == 3;
#X obj 279 88 inlet;
#X msg 277 113 \$1 25;
#X obj 277 136 line~;
#X obj 187 218 expr~ if($v1 > $v2 \, 1 \, -1);
#X connect 0 0 4 0;
#X connect 1 0 9 0;
#X connect 4 0 5 0;
#X connect 5 0 6 0;
#X connect 6 0 7 0;
#X connect 7 0 8 0;
#X connect 7 0 8 1;
#X connect 8 0 13 0;
#X connect 9 0 2 0;
#X connect 10 0 11 0;
#X connect 11 0 12 0;
#X connect 12 0 13 1;
#X connect 13 0 3 0;
#X restore 160 330 pd pls;
#N canvas 0 16 450 300 pd 0;
#X obj 363 80 inlet;
#X obj 363 126 switch~;
#X obj 187 255 outlet~;
#X obj 187 219 noise~;
#X obj 363 102 == 4;
#X connect 0 0 4 0;
#X connect 3 0 2 0;
#X connect 4 0 1 0;
#X restore 203 329 pd pd noise;
#X connect 1 0 7 1;
#X connect 1 0 20 1;
#X connect 1 0 21 1;
#X connect 1 0 22 2;
#X connect 1 0 23 0;
#X connect 7 0 17 0;
#X connect 8 0 9 0;
#X connect 9 0 10 0;
#X connect 10 0 7 0;
#X connect 10 0 11 0;
#X connect 10 0 20 0;
#X connect 10 0 21 0;
#X connect 10 0 22 0;
#X connect 11 0 12 0;
#X connect 12 0 8 0;
#X connect 13 0 14 0;
#X connect 14 0 22 1;
#X connect 15 0 16 0;
#X connect 16 0 18 0;
#X connect 17 0 0 0;
#X connect 18 0 19 0;
#X connect 19 0 17 1;
#X connect 20 0 17 0;
#X connect 21 0 17 0;
#X connect 22 0 17 0;
#X connect 23 0 17 0;
#X coords 0 -1 1 1 54 224 1 100 100;
#X restore 81 84 pd gen;
#N canvas 615 96 358 498 gen 0;
#X obj 126 432 outlet~;
#X obj 102 244 vradio 15 1 1 5 empty empty empty 0 -8 0 10 #fcfcfc
#000000 #000000 2;
#X text 118 242 sin;
#X text 118 258 tri;
#X text 118 273 saw;
#X text 118 288 pls;
#X text 118 303 noise;
#N canvas 0 16 450 300 sin 0;
#X obj 187 60 inlet;
#X obj 276 76 inlet;
#X obj 276 99 == 0;
#X obj 276 122 switch~;
#X obj 186 213 outlet~;
#X obj 187 137 osc~;
#X msg 187 91 \$1 25;
#X obj 187 114 line~;
#X connect 0 0 6 0;
#X connect 1 0 2 0;
#X connect 2 0 3 0;
#X connect 5 0 4 0;
#X connect 6 0 7 0;
#X connect 7 0 5 0;
#X restore 15 323 pd sin;
#X obj 102 131 nbx 4 14 -1e+37 1e+37 0 1 empty empty pitch 0 -8 0 10
#fcfcfc #000000 #000000 72.7521 256;
#X obj 42 146 mtof;
#X obj 102 162 nbx 4 14 -1e+37 1e+37 0 1 empty empty freq 0 -8 0 10
#fcfcfc #000000 #000000 546.485 256;
#X obj 183 179 ftom;
#X msg 183 202 set \$1;
#X obj 102 193 nbx 4 14 -100 100 0 1 empty empty pw 0 -8 0 10 #fcfcfc
#000000 #000000 71 256;
#X obj 174 296 * 0.01;
#X obj 102 226 nbx 4 14 -9999 9999 0 1 empty empty level 0 -8 0 10
#fcfcfc #000000 #000000 100 256;
#X obj 282 303 * 0.01;
#X obj 126 410 *~;
#X msg 282 326 \$1 25;
#X obj 282 349 line~;
#N canvas 0 16 450 300 tri 0;
#X obj 187 60 inlet;
#X obj 276 76 inlet;
#X obj 276 122 switch~;
#X obj 187 255 outlet~;
#X msg 187 91 \$1 25;
#X obj 187 115 line~;
#X obj 187 137 phasor~;
#X obj 187 160 -~ 0.5;
#X obj 187 183 abs~;
#X obj 187 229 -~ 1;
#X obj 276 99 == 1;
#X obj 187 206 *~ 4;
#X connect 0 0 4 0;
#X connect 1 0 10 0;
#X connect 4 0 5 0;
#X connect 5 0 6 0;
#X connect 6 0 7 0;
#X connect 7 0 8 0;
#X connect 8 0 11 0;
#X connect 9 0 3 0;
#X connect 10 0 2 0;
#X connect 11 0 9 0;
#X restore 63 327 pd tri;
#N canvas 0 16 450 300 saw 0;
#X obj 187 60 inlet;
#X obj 276 76 inlet;
#X obj 276 122 switch~;
#X obj 187 255 outlet~;
#X msg 187 91 \$1 25;
#X obj 187 115 line~;
#X obj 187 137 phasor~;
#X obj 187 160 -~ 0.5;
#X obj 187 206 +~;
#X obj 276 98 == 2;
#X connect 0 0 4 0;
#X connect 1 0 9 0;
#X connect 4 0 5 0;
#X connect 5 0 6 0;
#X connect 6 0 7 0;
#X connect 7 0 8 0;
#X connect 7 0 8 1;
#X connect 8 0 3 0;
#X connect 9 0 2 0;
#X restore 113 333 pd saw;
#N canvas 0 16 450 300 pls 0;
#X obj 187 60 inlet;
#X obj 363 80 inlet;
#X obj 363 126 switch~;
#X obj 187 255 outlet~;
#X msg 187 91 \$1 25;
#X obj 187 115 line~;
#X obj 187 137 phasor~;
#X obj 187 160 -~ 0.5;
#X obj 187 185 +~;
#X obj 363 102 == 3;
#X obj 279 88 inlet;
#X msg 277 113 \$1 25;
#X obj 277 136 line~;
#X obj 187 218 expr~ if($v1 > $v2 \, 1 \, -1);
#X connect 0 0 4 0;
#X connect 1 0 9 0;
#X connect 4 0 5 0;
#X connect 5 0 6 0;
#X connect 6 0 7 0;
#X connect 7 0 8 0;
#X connect 7 0 8 1;
#X connect 8 0 13 0;
#X connect 9 0 2 0;
#X connect 10 0 11 0;
#X connect 11 0 12 0;
#X connect 12 0 13 1;
#X connect 13 0 3 0;
#X restore 160 330 pd pls;
#N canvas 0 16 450 300 pd 0;
#X obj 363 80 inlet;
#X obj 363 126 switch~;
#X obj 187 255 outlet~;
#X obj 187 219 noise~;
#X obj 363 102 == 4;
#X connect 0 0 4 0;
#X connect 3 0 2 0;
#X connect 4 0 1 0;
#X restore 203 329 pd pd noise;
#X connect 1 0 7 1;
#X connect 1 0 20 1;
#X connect 1 0 21 1;
#X connect 1 0 22 2;
#X connect 1 0 23 0;
#X connect 7 0 17 0;
#X connect 8 0 9 0;
#X connect 9 0 10 0;
#X connect 10 0 7 0;
#X connect 10 0 11 0;
#X connect 10 0 20 0;
#X connect 10 0 21 0;
#X connect 10 0 22 0;
#X connect 11 0 12 0;
#X connect 12 0 8 0;
#X connect 13 0 14 0;
#X connect 14 0 22 1;
#X connect 15 0 16 0;
#X connect 16 0 18 0;
#X connect 17 0 0 0;
#X connect 18 0 19 0;
#X connect 19 0 17 1;
#X connect 20 0 17 0;
#X connect 21 0 17 0;
#X connect 22 0 17 0;
#X connect 23 0 17 0;
#X coords 0 -1 1 1 54 224 1 100 100;
#X restore 135 84 pd gen;
#N canvas 615 96 358 498 gen 0;
#X obj 126 432 outlet~;
#X obj 102 244 vradio 15 1 1 5 empty empty empty 0 -8 0 10 #fcfcfc
#000000 #000000 0;
#X text 118 242 sin;
#X text 118 258 tri;
#X text 118 273 saw;
#X text 118 288 pls;
#X text 118 303 noise;
#N canvas 0 16 450 300 sin 0;
#X obj 187 60 inlet;
#X obj 276 76 inlet;
#X obj 276 99 == 0;
#X obj 276 122 switch~;
#X obj 186 213 outlet~;
#X obj 187 137 osc~;
#X msg 187 91 \$1 25;
#X obj 187 114 line~;
#X connect 0 0 6 0;
#X connect 1 0 2 0;
#X connect 2 0 3 0;
#X connect 5 0 4 0;
#X connect 6 0 7 0;
#X connect 7 0 5 0;
#X restore 15 323 pd sin;
#X obj 102 131 nbx 4 14 -1e+37 1e+37 0 1 empty empty pitch 0 -8 0 10
#fcfcfc #000000 #000000 53.2131 256;
#X obj 42 146 mtof;
#X obj 102 162 nbx 4 14 -1e+37 1e+37 0 1 empty empty freq 0 -8 0 10
#fcfcfc #000000 #000000 176.777 256;
#X obj 183 179 ftom;
#X msg 183 202 set \$1;
#X obj 102 193 nbx 4 14 -100 100 0 1 empty empty pw 0 -8 0 10 #fcfcfc
#000000 #000000 9 256;
#X obj 174 296 * 0.01;
#X obj 102 226 nbx 4 14 -9999 9999 0 1 empty empty level 0 -8 0 10
#fcfcfc #000000 #000000 100 256;
#X obj 282 303 * 0.01;
#X obj 126 410 *~;
#X msg 282 326 \$1 25;
#X obj 282 349 line~;
#N canvas 0 16 450 300 tri 0;
#X obj 187 60 inlet;
#X obj 276 76 inlet;
#X obj 276 122 switch~;
#X obj 187 255 outlet~;
#X msg 187 91 \$1 25;
#X obj 187 115 line~;
#X obj 187 137 phasor~;
#X obj 187 160 -~ 0.5;
#X obj 187 183 abs~;
#X obj 187 229 -~ 1;
#X obj 276 99 == 1;
#X obj 187 206 *~ 4;
#X connect 0 0 4 0;
#X connect 1 0 10 0;
#X connect 4 0 5 0;
#X connect 5 0 6 0;
#X connect 6 0 7 0;
#X connect 7 0 8 0;
#X connect 8 0 11 0;
#X connect 9 0 3 0;
#X connect 10 0 2 0;
#X connect 11 0 9 0;
#X restore 63 327 pd tri;
#N canvas 0 16 450 300 saw 0;
#X obj 187 60 inlet;
#X obj 276 76 inlet;
#X obj 276 122 switch~;
#X obj 187 255 outlet~;
#X msg 187 91 \$1 25;
#X obj 187 115 line~;
#X obj 187 137 phasor~;
#X obj 187 160 -~ 0.5;
#X obj 187 206 +~;
#X obj 276 98 == 2;
#X connect 0 0 4 0;
#X connect 1 0 9 0;
#X connect 4 0 5 0;
#X connect 5 0 6 0;
#X connect 6 0 7 0;
#X connect 7 0 8 0;
#X connect 7 0 8 1;
#X connect 8 0 3 0;
#X connect 9 0 2 0;
#X restore 113 333 pd saw;
#N canvas 0 16 450 300 pls 0;
#X obj 187 60 inlet;
#X obj 363 80 inlet;
#X obj 363 126 switch~;
#X obj 187 255 outlet~;
#X msg 187 91 \$1 25;
#X obj 187 115 line~;
#X obj 187 137 phasor~;
#X obj 187 160 -~ 0.5;
#X obj 187 185 +~;
#X obj 363 102 == 3;
#X obj 279 88 inlet;
#X msg 277 113 \$1 25;
#X obj 277 136 line~;
#X obj 187 218 expr~ if($v1 > $v2 \, 1 \, -1);
#X connect 0 0 4 0;
#X connect 1 0 9 0;
#X connect 4 0 5 0;
#X connect 5 0 6 0;
#X connect 6 0 7 0;
#X connect 7 0 8 0;
#X connect 7 0 8 1;
#X connect 8 0 13 0;
#X connect 9 0 2 0;
#X connect 10 0 11 0;
#X connect 11 0 12 0;
#X connect 12 0 13 1;
#X connect 13 0 3 0;
#X restore 160 330 pd pls;
#N canvas 0 16 450 300 pd 0;
#X obj 363 80 inlet;
#X obj 363 126 switch~;
#X obj 187 255 outlet~;
#X obj 187 219 noise~;
#X obj 363 102 == 4;
#X connect 0 0 4 0;
#X connect 3 0 2 0;
#X connect 4 0 1 0;
#X restore 203 329 pd pd noise;
#X connect 1 0 7 1;
#X connect 1 0 20 1;
#X connect 1 0 21 1;
#X connect 1 0 22 2;
#X connect 1 0 23 0;
#X connect 7 0 17 0;
#X connect 8 0 9 0;
#X connect 9 0 10 0;
#X connect 10 0 7 0;
#X connect 10 0 11 0;
#X connect 10 0 20 0;
#X connect 10 0 21 0;
#X connect 10 0 22 0;
#X connect 11 0 12 0;
#X connect 12 0 8 0;
#X connect 13 0 14 0;
#X connect 14 0 22 1;
#X connect 15 0 16 0;
#X connect 16 0 18 0;
#X connect 17 0 0 0;
#X connect 18 0 19 0;
#X connect 19 0 17 1;
#X connect 20 0 17 0;
#X connect 21 0 17 0;
#X connect 22 0 17 0;
#X connect 23 0 17 0;
#X coords 0 -1 1 1 54 224 1 100 100;
#X restore 189 84 pd gen;
#X text 39 366 argument: amount_channels;
#X obj 28 344 n_sa~ 4, f 27;
#X text 65 40 Signal Analysis tool.;
#N canvas 0 16 450 300 (subpatch) 0;
#X obj 100 100 tgl 15 0 empty empty window 24 8 0 10 #fcfcfc #000000
#000000 0 1;
#X obj 100 135 s \$0-to;
#X msg 100 117 window \$1;
#X obj 100 28 r \$0-from;
#X msg 100 74 set \$1;
#X obj 100 51 route window;
#X connect 0 0 2 0;
#X connect 2 0 1 0;
#X connect 3 0 5 0;
#X connect 4 0 0 0;
#X connect 5 0 4 0;
#X coords 0 -1 1 1 200 15 2 100 100;
#X restore 265 33 pd;
#N canvas 0 16 450 300 (subpatch) 0;
#X obj 100 141 s \$0-to;
#X msg 100 119 window_h \$1;
#X obj 100 100 nbx 4 15 100 9999 0 1 empty empty window\\\ height 48
8 0 10 #fcfcfc #000000 #000000 256 256;
#X obj 100 28 r \$0-from;
#X msg 100 74 set \$1;
#X obj 100 52 route window_h;
#X connect 1 0 0 0;
#X connect 2 0 1 0;
#X connect 3 0 5 0;
#X connect 4 0 2 0;
#X connect 5 0 4 0;
#X coords 0 -1 1 1 200 15 2 100 100;
#X restore 265 78 pd;
#N canvas 0 16 450 300 (subpatch) 0;
#X obj 100 149 s \$0-to;
#X obj 100 100 nbx 4 15 1 9999 0 1 empty empty scope_width 48 8 0 10
#fcfcfc #000000 #000000 256 256;
#X msg 100 124 scope_w \$1;
#X connect 1 0 2 0;
#X connect 2 0 0 0;
#X coords 0 -1 1 1 200 15 2 100 100;
#X restore 472 48 pd;
#N canvas 0 16 450 300 (subpatch) 0;
#X obj 100 148 s \$0-to;
#X obj 100 100 nbx 4 15 1 9999 0 1 empty empty spectr_width 48 8 0
10 #fcfcfc #000000 #000000 512 256;
#X msg 100 122 spectr_w \$1;
#X connect 1 0 2 0;
#X connect 2 0 0 0;
#X coords 0 -1 1 1 200 15 2 100 100;
#X restore 679 51 pd;
#N canvas 0 16 450 300 (subpatch) 0;
#X obj 100 141 s \$0-to;
#X obj 100 100 nbx 4 15 -9999 9999 0 1 empty empty window\\\ ox 48
8 0 10 #fcfcfc #000000 #000000 154 256;
#X msg 100 119 window_ox \$1;
#X obj 100 28 r \$0-from;
#X obj 100 51 route window_ox;
#X msg 100 74 set \$1;
#X connect 1 0 2 0;
#X connect 2 0 0 0;
#X connect 3 0 4 0;
#X connect 4 0 5 0;
#X connect 5 0 1 0;
#X coords 0 -1 1 1 200 15 2 100 100;
#X restore 265 48 pd;
#N canvas 0 16 450 300 (subpatch) 0;
#X obj 100 141 s \$0-to;
#X obj 100 100 nbx 4 15 -9999 9999 0 1 empty empty window\\\ oy 48
8 0 10 #fcfcfc #000000 #000000 33 256;
#X msg 100 119 window_oy \$1;
#X obj 100 28 r \$0-from;
#X msg 100 74 set \$1;
#X obj 100 52 route window_oy;
#X connect 1 0 2 0;
#X connect 2 0 0 0;
#X connect 3 0 5 0;
#X connect 4 0 1 0;
#X connect 5 0 4 0;
#X coords 0 -1 1 1 200 15 2 100 100;
#X restore 265 63 pd;
#X obj 28 383 s \$0-from;
#N canvas 0 16 450 300 (subpatch) 0;
#X obj 100 100 tgl 15 1 empty empty scope_view 24 8 0 10 #fcfcfc #000000
#000000 0 1;
#X obj 100 135 s \$0-to;
#X msg 100 117 scope_view \$1;
#X connect 0 0 2 0;
#X connect 2 0 1 0;
#X coords 0 -1 1 1 200 15 2 100 100;
#X restore 472 33 pd;
#N canvas 0 16 450 300 (subpatch) 0;
#X obj 100 100 tgl 15 1 empty empty spectr_view 24 8 0 10 #fcfcfc #000000
#000000 1 1;
#X obj 100 135 s \$0-to;
#X msg 100 117 spectr_view \$1;
#X connect 0 0 2 0;
#X connect 2 0 1 0;
#X coords 0 -1 1 1 200 15 2 100 100;
#X restore 679 36 pd;
#N canvas 526 215 411 401 color 0;
#X obj 208 100 tgl 15 0 empty empty split 17 8 0 10 #010100 #010100
#000000 0 1;
#X obj 100 100 nbx 3 15 1 255 0 1 empty empty empty 0 -8 0 10 #fcfcfc
#000000 #000000 1 256;
#X obj 136 100 nbx 3 15 1 255 0 1 empty empty empty 0 -8 0 10 #fcfcfc
#000000 #000000 1 256;
#X obj 172 100 nbx 3 15 1 255 0 1 empty empty empty 0 -8 0 10 #fcfcfc
#000000 #000000 1 256;
#X obj 172 140 t b f;
#X obj 172 160 +, f 5;
#X obj 100 199 +;
#X obj 172 180 t b f;
#X obj 136 140 << 8;
#X obj 100 140 << 16;
#X obj 100 218 * -1;
#X msg 208 236 color \$1 \$1 22;
#X msg 100 241 color_split \$1;
#X obj 100 262 s \$0-to;
#X connect 1 0 9 0;
#X connect 2 0 8 0;
#X connect 3 0 4 0;
#X connect 4 0 5 0;
#X connect 4 1 5 1;
#X connect 5 0 7 0;
#X connect 6 0 10 0;
#X connect 7 0 6 0;
#X connect 7 1 6 1;
#X connect 8 0 5 0;
#X connect 9 0 6 0;
#X connect 10 0 11 0;
#X connect 10 0 12 0;
#X connect 11 0 0 0;
#X connect 12 0 13 0;
#X coords 0 -1 1 1 200 15 2 100 100;
#X restore 265 123 pd color;
#N canvas 526 215 411 401 color 0;
#X obj 208 100 tgl 15 0 empty empty back 17 8 0 10 #212120 #212120
#000000 0 1;
#X obj 100 100 nbx 3 15 1 255 0 1 empty empty empty 0 -8 0 10 #fcfcfc
#000000 #000000 33 256;
#X obj 136 100 nbx 3 15 1 255 0 1 empty empty empty 0 -8 0 10 #fcfcfc
#000000 #000000 33 256;
#X obj 172 100 nbx 3 15 1 255 0 1 empty empty empty 0 -8 0 10 #fcfcfc
#000000 #000000 33 256;
#X obj 172 140 t b f;
#X obj 172 160 +, f 5;
#X obj 100 199 +;
#X obj 172 180 t b f;
#X obj 136 140 << 8;
#X obj 100 140 << 16;
#X obj 100 218 * -1;
#X msg 208 236 color \$1 \$1 22;
#X obj 100 262 s \$0-to;
#X msg 100 241 color_back \$1;
#X connect 1 0 9 0;
#X connect 2 0 8 0;
#X connect 3 0 4 0;
#X connect 4 0 5 0;
#X connect 4 1 5 1;
#X connect 5 0 7 0;
#X connect 6 0 10 0;
#X connect 7 0 6 0;
#X connect 7 1 6 1;
#X connect 8 0 5 0;
#X connect 9 0 6 0;
#X connect 10 0 11 0;
#X connect 10 0 13 0;
#X connect 11 0 0 0;
#X connect 13 0 12 0;
#X coords 0 -1 1 1 200 15 2 100 100;
#X restore 265 138 pd color;
#N canvas 526 215 411 401 color 0;
#X obj 208 100 tgl 15 0 empty empty grid 17 8 0 10 #323231 #323231
#000000 0 1;
#X obj 100 100 nbx 3 15 1 255 0 1 empty empty empty 0 -8 0 10 #fcfcfc
#000000 #000000 50 256;
#X obj 136 100 nbx 3 15 1 255 0 1 empty empty empty 0 -8 0 10 #fcfcfc
#000000 #000000 50 256;
#X obj 172 100 nbx 3 15 1 255 0 1 empty empty empty 0 -8 0 10 #fcfcfc
#000000 #000000 50 256;
#X obj 172 140 t b f;
#X obj 172 160 +, f 5;
#X obj 100 199 +;
#X obj 172 180 t b f;
#X obj 136 140 << 8;
#X obj 100 140 << 16;
#X obj 100 218 * -1;
#X msg 208 236 color \$1 \$1 22;
#X obj 100 262 s \$0-to;
#X msg 100 241 color_grid \$1;
#X connect 1 0 9 0;
#X connect 2 0 8 0;
#X connect 3 0 4 0;
#X connect 4 0 5 0;
#X connect 4 1 5 1;
#X connect 5 0 7 0;
#X connect 6 0 10 0;
#X connect 7 0 6 0;
#X connect 7 1 6 1;
#X connect 8 0 5 0;
#X connect 9 0 6 0;
#X connect 10 0 11 0;
#X connect 10 0 13 0;
#X connect 11 0 0 0;
#X connect 13 0 12 0;
#X coords 0 -1 1 1 200 15 2 100 100;
#X restore 265 153 pd color;
#N canvas 526 215 411 401 color 0;
#X obj 208 100 tgl 15 0 empty empty sep 17 8 0 10 #6f6f6e #6f6f6e #000000
0 1;
#X obj 100 100 nbx 3 15 1 255 0 1 empty empty empty 0 -8 0 10 #fcfcfc
#000000 #000000 111 256;
#X obj 136 100 nbx 3 15 1 255 0 1 empty empty empty 0 -8 0 10 #fcfcfc
#000000 #000000 111 256;
#X obj 172 100 nbx 3 15 1 255 0 1 empty empty empty 0 -8 0 10 #fcfcfc
#000000 #000000 111 256;
#X obj 172 140 t b f;
#X obj 172 160 +, f 5;
#X obj 100 199 +;
#X obj 172 180 t b f;
#X obj 136 140 << 8;
#X obj 100 140 << 16;
#X obj 100 218 * -1;
#X msg 208 236 color \$1 \$1 22;
#X obj 100 262 s \$0-to;
#X msg 100 241 color_sep \$1;
#X connect 1 0 9 0;
#X connect 2 0 8 0;
#X connect 3 0 4 0;
#X connect 4 0 5 0;
#X connect 4 1 5 1;
#X connect 5 0 7 0;
#X connect 6 0 10 0;
#X connect 7 0 6 0;
#X connect 7 1 6 1;
#X connect 8 0 5 0;
#X connect 9 0 6 0;
#X connect 10 0 11 0;
#X connect 10 0 13 0;
#X connect 11 0 0 0;
#X connect 13 0 12 0;
#X coords 0 -1 1 1 200 15 2 100 100;
#X restore 265 168 pd color;
#N canvas 0 16 450 300 (subpatch) 0;
#X obj 100 100 tgl 15 1 empty empty scope_grid_view 24 8 0 10 #fcfcfc
#000000 #000000 1 1;
#X obj 100 135 s \$0-to;
#X msg 100 117 scope_grid_view \$1;
#X connect 0 0 2 0;
#X connect 2 0 1 0;
#X coords 0 -1 1 1 200 15 2 100 100;
#X restore 472 63 pd;
#N canvas 0 16 450 300 (subpatch) 0;
#X obj 100 100 tgl 15 1 empty empty scope_sep_view 24 8 0 10 #fcfcfc
#000000 #000000 1 1;
#X obj 100 135 s \$0-to;
#X msg 100 117 scope_sep_view \$1;
#X connect 0 0 2 0;
#X connect 2 0 1 0;
#X coords 0 -1 1 1 200 15 2 100 100;
#X restore 472 108 pd;
#N canvas 0 16 450 300 (subpatch) 0;
#X obj 100 100 tgl 15 1 empty empty scope_separate 24 8 0 10 #fcfcfc
#000000 #000000 1 1;
#X obj 100 135 s \$0-to;
#X msg 100 117 scope_separate \$1;
#X connect 0 0 2 0;
#X connect 2 0 1 0;
#X coords 0 -1 1 1 200 15 2 100 100;
#X restore 472 123 pd;
#N canvas 0 16 450 300 (subpatch) 0;
#X obj 100 135 s \$0-to;
#X obj 100 100 hradio 15 1 1 4 empty empty scope_sync_channel 64 8
0 10 #fcfcfc #000000 #000000 0;
#X msg 100 117 scope_sync_channel \$1;
#X connect 1 0 2 0;
#X connect 2 0 0 0;
#X coords 0 -1 1 1 200 15 2 100 100;
#X restore 472 168 pd;
#N canvas 0 16 450 300 (subpatch) 0;
#X obj 100 188 s \$0-to;
#X obj 100 100 nbx 4 15 -9999 9999 0 1 empty empty scope_sync_treshold
48 8 0 10 #fcfcfc #000000 #000000 1 256;
#X msg 100 162 scope_sync_treshold \$1;
#X obj 100 120 * 0.01;
#X connect 1 0 3 0;
#X connect 2 0 0 0;
#X connect 3 0 2 0;
#X coords 0 -1 1 1 200 15 2 100 100;
#X restore 472 183 pd;
#N canvas 0 16 450 300 (subpatch) 0;
#X obj 100 157 s \$0-to;
#X obj 100 100 nbx 4 15 1 9999 0 1 empty empty scope_spp 48 8 0 10
#fcfcfc #000000 #000000 10 256;
#X msg 100 131 scope_spp \$1;
#X connect 1 0 2 0;
#X connect 2 0 0 0;
#X coords 0 -1 1 1 200 15 2 100 100;
#X restore 472 228 pd;
#N canvas 0 16 450 300 (subpatch) 0;
#X obj 100 100 tgl 15 1 empty empty scope_sync_dc 24 8 0 10 #fcfcfc
#000000 #000000 1 1;
#X obj 100 135 s \$0-to;
#X msg 100 117 scope_sync_dc \$1;
#X connect 0 0 2 0;
#X connect 2 0 1 0;
#X coords 0 -1 1 1 200 15 2 100 100;
#X restore 472 198 pd;
#N canvas 0 16 450 300 (subpatch) 0;
#X obj 100 157 s \$0-to;
#X obj 100 100 nbx 4 15 1 9999 0 1 empty empty scope_sync_dc_freq 48
8 0 10 #fcfcfc #000000 #000000 1 256;
#X msg 100 130 scope_sync_dc_freq \$1;
#X connect 1 0 2 0;
#X connect 2 0 0 0;
#X coords 0 -1 1 1 200 15 2 100 100;
#X restore 472 213 pd;
#N canvas 0 16 450 300 (subpatch) 0;
#X obj 100 157 s \$0-to;
#X obj 100 100 nbx 4 15 0 31 0 1 empty empty scope_grid_ver 48 8 0
10 #fcfcfc #000000 #000000 12 256;
#X msg 100 131 scope_grid_ver \$1;
#X connect 1 0 2 0;
#X connect 2 0 0 0;
#X coords 0 -1 1 1 200 15 2 100 100;
#X restore 472 78 pd;
#N canvas 0 16 450 300 (subpatch) 0;
#X obj 100 157 s \$0-to;
#X obj 100 100 nbx 4 15 0 31 0 1 empty empty scope_grid_hor 48 8 0
10 #fcfcfc #000000 #000000 9 256;
#X msg 100 130 scope_grid_hor \$1;
#X connect 1 0 2 0;
#X connect 2 0 0 0;
#X coords 0 -1 1 1 200 15 2 100 100;
#X restore 472 93 pd;
#N canvas 0 16 450 300 (subpatch) 0;
#X obj 100 100 tgl 15 1 empty empty scope_on_ch0 24 8 0 10 #fcfcfc
#000000 #000000 1 1;
#X obj 100 135 s \$0-to;
#X msg 100 117 scope_on 0 \$1;
#X connect 0 0 2 0;
#X connect 2 0 1 0;
#X coords 0 -1 1 1 200 15 2 100 100;
#X restore 472 285 pd;
#N canvas 0 16 450 300 (subpatch) 0;
#X obj 100 100 tgl 15 1 empty empty scope_on_ch1 24 8 0 10 #fcfcfc
#000000 #000000 1 1;
#X obj 100 135 s \$0-to;
#X msg 100 117 scope_on 1 \$1;
#X connect 0 0 2 0;
#X connect 2 0 1 0;
#X coords 0 -1 1 1 200 15 2 100 100;
#X restore 472 300 pd;
#N canvas 0 16 450 300 (subpatch) 0;
#X obj 100 100 tgl 15 1 empty empty scope_on_ch2 24 8 0 10 #fcfcfc
#000000 #000000 1 1;
#X obj 100 135 s \$0-to;
#X msg 100 117 scope_on 2 \$1;
#X connect 0 0 2 0;
#X connect 2 0 1 0;
#X coords 0 -1 1 1 200 15 2 100 100;
#X restore 472 315 pd;
#N canvas 0 16 450 300 (subpatch) 0;
#X obj 100 100 tgl 15 1 empty empty scope_on_ch3 24 8 0 10 #fcfcfc
#000000 #000000 1 1;
#X obj 100 135 s \$0-to;
#X msg 100 117 scope_on 3 \$1;
#X connect 0 0 2 0;
#X connect 2 0 1 0;
#X coords 0 -1 1 1 200 15 2 100 100;
#X restore 472 330 pd;
#N canvas 0 16 450 300 (subpatch) 0;
#X obj 100 185 s \$0-to;
#X obj 100 100 nbx 4 15 -9999 9999 0 1 empty empty scope_amp_ch0 48
8 0 10 #fcfcfc #000000 #000000 100 256;
#X msg 100 157 scope_amp 0 \$1;
#X obj 100 120 * 0.01;
#X connect 1 0 3 0;
#X connect 2 0 0 0;
#X connect 3 0 2 0;
#X coords 0 -1 1 1 200 15 2 100 100;
#X restore 472 345 pd;
#N canvas 0 16 450 300 (subpatch) 0;
#X obj 100 185 s \$0-to;
#X obj 100 100 nbx 4 15 -9999 9999 0 1 empty empty scope_amp_ch1 48
8 0 10 #fcfcfc #000000 #000000 100 256;
#X obj 100 120 * 0.01;
#X msg 100 157 scope_amp 1 \$1;
#X connect 1 0 2 0;
#X connect 2 0 3 0;
#X connect 3 0 0 0;
#X coords 0 -1 1 1 200 15 2 100 100;
#X restore 472 360 pd;
#N canvas 0 16 450 300 (subpatch) 0;
#X obj 100 185 s \$0-to;
#X obj 100 100 nbx 4 15 -9999 9999 0 1 empty empty scope_amp_ch2 48
8 0 10 #fcfcfc #000000 #000000 100 256;
#X obj 100 120 * 0.01;
#X msg 100 157 scope_amp 2 \$1;
#X connect 1 0 2 0;
#X connect 2 0 3 0;
#X connect 3 0 0 0;
#X coords 0 -1 1 1 200 15 2 100 100;
#X restore 472 375 pd;
#N canvas 0 16 450 300 (subpatch) 0;
#X obj 100 185 s \$0-to;
#X obj 100 100 nbx 4 15 -9999 9999 0 1 empty empty scope_amp_ch3 48
8 0 10 #fcfcfc #000000 #000000 100 256;
#X obj 100 120 * 0.01;
#X msg 100 157 scope_amp 3 \$1;
#X connect 1 0 2 0;
#X connect 2 0 3 0;
#X connect 3 0 0 0;
#X coords 0 -1 1 1 200 15 2 100 100;
#X restore 472 390 pd;
#N canvas 526 215 411 401 color 0;
#X obj 208 100 tgl 15 0 empty empty ch0 17 8 0 10 #017cc4 #017cc4 #000000
0 1;
#X obj 100 100 nbx 3 15 1 255 0 1 empty empty empty 0 -8 0 10 #fcfcfc
#000000 #000000 1 256;
#X obj 136 100 nbx 3 15 1 255 0 1 empty empty empty 0 -8 0 10 #fcfcfc
#000000 #000000 124 256;
#X obj 172 100 nbx 3 15 1 255 0 1 empty empty empty 0 -8 0 10 #fcfcfc
#000000 #000000 197 256;
#X obj 172 140 t b f;
#X obj 172 160 +, f 5;
#X obj 100 199 +;
#X obj 172 180 t b f;
#X obj 136 140 << 8;
#X obj 100 140 << 16;
#X obj 100 218 * -1;
#X msg 208 236 color \$1 \$1 22;
#X obj 100 262 s \$0-to;
#X msg 100 241 color_ch 0 \$1;
#X connect 1 0 9 0;
#X connect 2 0 8 0;
#X connect 3 0 4 0;
#X connect 4 0 5 0;
#X connect 4 1 5 1;
#X connect 5 0 7 0;
#X connect 6 0 10 0;
#X connect 7 0 6 0;
#X connect 7 1 6 1;
#X connect 8 0 5 0;
#X connect 9 0 6 0;
#X connect 10 0 11 0;
#X connect 10 0 13 0;
#X connect 11 0 0 0;
#X connect 13 0 12 0;
#X coords 0 -1 1 1 200 15 2 100 100;
#X restore 265 198 pd color;
#N canvas 526 215 411 401 color 0;
#X obj 208 100 tgl 15 0 empty empty ch1 17 8 0 10 #01d000 #01d000 #000000
0 1;
#X obj 100 100 nbx 3 15 1 255 0 1 empty empty empty 0 -8 0 10 #fcfcfc
#000000 #000000 1 256;
#X obj 136 100 nbx 3 15 1 255 0 1 empty empty empty 0 -8 0 10 #fcfcfc
#000000 #000000 208 256;
#X obj 172 100 nbx 3 15 1 255 0 1 empty empty empty 0 -8 0 10 #fcfcfc
#000000 #000000 1 256;
#X obj 172 140 t b f;
#X obj 172 160 +, f 5;
#X obj 100 199 +;
#X obj 172 180 t b f;
#X obj 136 140 << 8;
#X obj 100 140 << 16;
#X obj 100 218 * -1;
#X msg 208 236 color \$1 \$1 22;
#X obj 100 262 s \$0-to;
#X msg 100 241 color_ch 1 \$1;
#X connect 1 0 9 0;
#X connect 2 0 8 0;
#X connect 3 0 4 0;
#X connect 4 0 5 0;
#X connect 4 1 5 1;
#X connect 5 0 7 0;
#X connect 6 0 10 0;
#X connect 7 0 6 0;
#X connect 7 1 6 1;
#X connect 8 0 5 0;
#X connect 9 0 6 0;
#X connect 10 0 11 0;
#X connect 10 0 13 0;
#X connect 11 0 0 0;
#X connect 13 0 12 0;
#X coords 0 -1 1 1 200 15 2 100 100;
#X restore 265 213 pd color;
#N canvas 526 215 411 401 color 0;
#X obj 208 100 tgl 15 0 empty empty ch2 17 8 0 10 #c8010b #c8010b #000000
0 1;
#X obj 100 100 nbx 3 15 1 255 0 1 empty empty empty 0 -8 0 10 #fcfcfc
#000000 #000000 200 256;
#X obj 136 100 nbx 3 15 1 255 0 1 empty empty empty 0 -8 0 10 #fcfcfc
#000000 #000000 1 256;
#X obj 172 100 nbx 3 15 1 255 0 1 empty empty empty 0 -8 0 10 #fcfcfc
#000000 #000000 12 256;
#X obj 172 140 t b f;
#X obj 172 160 +, f 5;
#X obj 100 199 +;
#X obj 172 180 t b f;
#X obj 136 140 << 8;
#X obj 100 140 << 16;
#X obj 100 218 * -1;
#X msg 208 236 color \$1 \$1 22;
#X obj 100 262 s \$0-to;
#X msg 100 241 color_ch 2 \$1;
#X connect 1 0 9 0;
#X connect 2 0 8 0;
#X connect 3 0 4 0;
#X connect 4 0 5 0;
#X connect 4 1 5 1;
#X connect 5 0 7 0;
#X connect 6 0 10 0;
#X connect 7 0 6 0;
#X connect 7 1 6 1;
#X connect 8 0 5 0;
#X connect 9 0 6 0;
#X connect 10 0 11 0;
#X connect 10 0 13 0;
#X connect 11 0 0 0;
#X connect 13 0 12 0;
#X coords 0 -1 1 1 200 15 2 100 100;
#X restore 265 228 pd color;
#N canvas 526 215 411 401 color 0;
#X obj 208 100 tgl 15 0 empty empty ch3 17 8 0 10 #dc8900 #dc8900 #000000
0 1;
#X obj 100 100 nbx 3 15 1 255 0 1 empty empty empty 0 -8 0 10 #fcfcfc
#000000 #000000 220 256;
#X obj 136 100 nbx 3 15 1 255 0 1 empty empty empty 0 -8 0 10 #fcfcfc
#000000 #000000 137 256;
#X obj 172 100 nbx 3 15 1 255 0 1 empty empty empty 0 -8 0 10 #fcfcfc
#000000 #000000 1 256;
#X obj 172 140 t b f;
#X obj 172 160 +, f 5;
#X obj 100 199 +;
#X obj 172 180 t b f;
#X obj 136 140 << 8;
#X obj 100 140 << 16;
#X obj 100 218 * -1;
#X msg 208 236 color \$1 \$1 22;
#X obj 100 262 s \$0-to;
#X msg 100 241 color_ch 3 \$1;
#X connect 1 0 9 0;
#X connect 2 0 8 0;
#X connect 3 0 4 0;
#X connect 4 0 5 0;
#X connect 4 1 5 1;
#X connect 5 0 7 0;
#X connect 6 0 10 0;
#X connect 7 0 6 0;
#X connect 7 1 6 1;
#X connect 8 0 5 0;
#X connect 9 0 6 0;
#X connect 10 0 11 0;
#X connect 10 0 13 0;
#X connect 11 0 0 0;
#X connect 13 0 12 0;
#X coords 0 -1 1 1 200 15 2 100 100;
#X restore 265 243 pd color;
#N canvas 0 16 450 300 (subpatch) 0;
#X obj 100 135 s \$0-to;
#X obj 100 100 hradio 15 1 1 3 empty empty scope_sync(off/up/down)
50 8 0 9 #fcfcfc #000000 #000000 2;
#X msg 100 116 scope_sync \$1;
#X connect 1 0 2 0;
#X connect 2 0 0 0;
#X coords 0 -1 1 1 200 15 2 100 100;
#X restore 472 153 pd;
#N canvas 526 215 411 401 color 0;
#X obj 208 100 tgl 15 0 empty empty recpos 17 8 0 10 #019a00 #019a00
#000000 0 1;
#X obj 100 100 nbx 3 15 1 255 0 1 empty empty empty 0 -8 0 10 #fcfcfc
#000000 #000000 1 256;
#X obj 136 100 nbx 3 15 1 255 0 1 empty empty empty 0 -8 0 10 #fcfcfc
#000000 #000000 154 256;
#X obj 172 100 nbx 3 15 1 255 0 1 empty empty empty 0 -8 0 10 #fcfcfc
#000000 #000000 1 256;
#X obj 172 140 t b f;
#X obj 172 160 +, f 5;
#X obj 100 199 +;
#X obj 172 180 t b f;
#X obj 136 140 << 8;
#X obj 100 140 << 16;
#X obj 100 218 * -1;
#X msg 208 236 color \$1 \$1 22;
#X obj 100 262 s \$0-to;
#X msg 100 240 color_recpos \$1;
#X connect 1 0 9 0;
#X connect 2 0 8 0;
#X connect 3 0 4 0;
#X connect 4 0 5 0;
#X connect 4 1 5 1;
#X connect 5 0 7 0;
#X connect 6 0 10 0;
#X connect 7 0 6 0;
#X connect 7 1 6 1;
#X connect 8 0 5 0;
#X connect 9 0 6 0;
#X connect 10 0 11 0;
#X connect 10 0 13 0;
#X connect 11 0 0 0;
#X connect 13 0 12 0;
#X coords 0 -1 1 1 200 15 2 100 100;
#X restore 265 183 pd color;
#N canvas 65 30 450 300 (subpatch) 0;
#X obj 100 100 tgl 15 1 empty empty scope_recpos_view 24 8 0 10 #fcfcfc
#000000 #000000 0 1;
#X obj 100 135 s \$0-to;
#X msg 100 117 scope_recpos_view \$1;
#X connect 0 0 2 0;
#X connect 2 0 1 0;
#X coords 0 -1 1 1 200 15 2 100 100;
#X restore 472 138 pd;
#N canvas 0 16 450 300 (subpatch) 0;
#X obj 100 100 tgl 15 1 empty empty scope_freeze 24 8 0 10 #fcfcfc
#000000 #000000 0 1;
#X obj 100 135 s \$0-to;
#X msg 100 117 scope_freeze \$1;
#X connect 0 0 2 0;
#X connect 2 0 1 0;
#X coords 0 -1 1 1 200 15 2 100 100;
#X restore 472 243 pd;
#N canvas 0 16 450 300 (subpatch) 0;
#X obj 100 141 s \$0-to;
#X obj 100 100 nbx 4 15 1 256 0 1 empty empty window\\\ fps 48 8 0
10 #fcfcfc #000000 #000000 50 256;
#X msg 100 119 window_fps \$1;
#X connect 1 0 2 0;
#X connect 2 0 0 0;
#X coords 0 -1 1 1 200 15 2 100 100;
#X restore 265 93 pd;
#N canvas 0 16 450 300 (subpatch) 0;
#X obj 100 100 tgl 15 1 empty empty spectr_grid_view 24 8 0 10 #fcfcfc
#000000 #000000 1 1;
#X obj 100 135 s \$0-to;
#X msg 100 117 spectr_grid_view \$1;
#X connect 0 0 2 0;
#X connect 2 0 1 0;
#X coords 0 -1 1 1 200 15 2 100 100;
#X restore 679 71 pd;
#N canvas 0 16 450 300 (subpatch) 0;
#X obj 100 100 tgl 15 1 empty empty spectr_grid_ver(lin/log) 24 8 0
10 #fcfcfc #000000 #000000 0 1;
#X obj 100 135 s \$0-to;
#X msg 100 117 spectr_grid_ver \$1;
#X connect 0 0 2 0;
#X connect 2 0 1 0;
#X coords 0 -1 1 1 200 15 2 100 100;
#X restore 679 86 pd;
#N canvas 0 16 450 300 (subpatch) 0;
#X obj 100 100 tgl 15 1 empty empty spectr_grid_hor(lin/log) 24 8 0
10 #fcfcfc #000000 #000000 0 1;
#X obj 100 135 s \$0-to;
#X msg 100 117 spectr_grid_hor \$1;
#X connect 0 0 2 0;
#X connect 2 0 1 0;
#X coords 0 -1 1 1 200 15 2 100 100;
#X restore 679 101 pd;
#N canvas 0 16 450 300 (subpatch) 0;
#X obj 100 157 s \$0-to;
#X obj 100 100 nbx 4 15 -100 100 0 1 empty empty spectr_lin_min 48
8 0 10 #fcfcfc #000000 #000000 -3.50177e-09 256;
#X msg 100 130 spectr_lin_min \$1;
#X connect 1 0 2 0;
#X connect 2 0 0 0;
#X coords 0 -1 1 1 200 15 2 100 100;
#X restore 679 121 pd;
#N canvas 0 16 450 300 (subpatch) 0;
#X obj 100 157 s \$0-to;
#X obj 100 100 nbx 4 15 -100 100 0 1 empty empty spectr_lin_max 48
8 0 10 #fcfcfc #000000 #000000 1.63 256;
#X msg 100 130 spectr_lin_max \$1;
#X connect 1 0 2 0;
#X connect 2 0 0 0;
#X coords 0 -1 1 1 200 15 2 100 100;
#X restore 679 136 pd;
#N canvas 0 16 450 300 (subpatch) 0;
#X obj 100 157 s \$0-to;
#X obj 100 100 nbx 4 15 -100 100 0 1 empty empty spectr_log_min 48
8 0 10 #fcfcfc #000000 #000000 -60 256;
#X msg 100 130 spectr_log_min \$1;
#X connect 1 0 2 0;
#X connect 2 0 0 0;
#X coords 0 -1 1 1 200 15 2 100 100;
#X restore 679 151 pd;
#N canvas 0 16 450 300 (subpatch) 0;
#X obj 100 157 s \$0-to;
#X obj 100 100 nbx 4 15 -100 100 0 1 empty empty spectr_log_max 48
8 0 10 #fcfcfc #000000 #000000 0 256;
#X msg 100 130 spectr_log_max \$1;
#X connect 1 0 2 0;
#X connect 2 0 0 0;
#X coords 0 -1 1 1 200 15 2 100 100;
#X restore 679 166 pd;
#N canvas 818 235 450 300 (subpatch) 0;
#X obj 100 157 s \$0-to;
#X obj 100 100 nbx 4 15 -10 50 0 1 empty empty spectr_env 48 8 0 10
#fcfcfc #000000 #000000 -4 256;
#X msg 100 130 spectr_env \$1;
#X connect 1 0 2 0;
#X connect 2 0 0 0;
#X coords 0 -1 1 1 200 15 2 100 100;
#X restore 679 196 pd;
#N canvas 899 66 411 563 (subpatch) 0;
#X obj 68 431 s \$0-to;
#X obj 100 100 tgl 15 0 \$0-s \$0-r - 4 8 0 10 #fcfcfc #ffffff #000000
0 1;
#X obj 100 120 bang;
#X msg 68 410 spectr_size \$1;
#X obj 116 101 cnv 13 168 13 empty \$0-spectr-size spectr_size:4096
4 7 0 10 #ffffff #000000 0;
#X obj 166 431 s \$0-spectr-size;
#X obj 111 382 t f f;
#X obj 285 100 tgl 15 0 \$0-s \$0-r + 5 8 0 10 #fcfcfc #ffffff #000000
0 1;
#X obj 285 120 bang;
#X obj 100 143 i;
#X obj 287 199 nbx 5 14 0 8 0 1 empty empty spectr_size 0 -8 0 10 #bbbbbb
#000000 #000000 6 256;
#X obj 100 166 - 1;
#X obj 285 143 i;
#X obj 285 166 + 1;
#X msg 166 410 label spectr_size:\$1;
#X obj 75 330 list split 1;
#X obj 147 230 t b f f;
#X obj 103 354 list split 1;
#X msg 25 263 64 128 256 512 1024 2048 4096 8192 16384;
#X connect 1 0 2 0;
#X connect 2 0 9 0;
#X connect 3 0 0 0;
#X connect 6 0 3 0;
#X connect 6 1 14 0;
#X connect 7 0 8 0;
#X connect 8 0 12 0;
#X connect 9 0 11 0;
#X connect 10 0 16 0;
#X connect 11 0 10 0;
#X connect 12 0 13 0;
#X connect 13 0 10 0;
#X connect 14 0 5 0;
#X connect 15 1 17 0;
#X connect 16 0 18 0;
#X connect 16 1 15 1;
#X connect 16 2 9 1;
#X connect 16 2 12 1;
#X connect 17 0 6 0;
#X connect 18 0 15 0;
#X coords 0 -1 1 1 200 15 2 100 100;
#X restore 677 219 pd;
#N canvas 864 67 411 563 (subpatch) 0;
#X obj 68 431 s \$0-to;
#X obj 100 100 tgl 15 0 \$0-s \$0-r - 4 8 0 10 #fcfcfc #ffffff #000000
0 1;
#X obj 100 120 bang;
#X obj 116 101 cnv 13 168 13 empty \$0-spectr-win spectr_win:none 4
7 0 10 #ffffff #000000 0;
#X obj 285 100 tgl 15 0 \$0-s \$0-r + 5 8 0 10 #fcfcfc #ffffff #000000
0 1;
#X obj 285 120 bang;
#X obj 100 143 i;
#X obj 287 199 nbx 5 14 0 9 0 1 empty empty spectr_win 0 -8 0 10 #bbbbbb
#000000 #000000 0 256;
#X obj 100 166 - 1;
#X obj 285 143 i;
#X obj 285 166 + 1;
#X obj 75 330 list split 1;
#X obj 147 230 t b f f;
#X obj 103 354 list split 1;
#X msg 166 410 label spectr_win:\$1;
#X msg 68 409 spectr_win \$1;
#X obj 166 431 s \$0-spectr-win;
#X obj 111 382 t s s;
#X msg 25 263 none bartlett blackman connes gaussian hanning hamming
lanczos sin welch;
#X connect 1 0 2 0;
#X connect 2 0 6 0;
#X connect 4 0 5 0;
#X connect 5 0 9 0;
#X connect 6 0 8 0;
#X connect 7 0 12 0;
#X connect 8 0 7 0;
#X connect 9 0 10 0;
#X connect 10 0 7 0;
#X connect 11 1 13 0;
#X connect 12 0 18 0;
#X connect 12 1 11 1;
#X connect 12 2 6 1;
#X connect 12 2 9 1;
#X connect 13 0 17 0;
#X connect 14 0 16 0;
#X connect 15 0 0 0;
#X connect 17 0 15 0;
#X connect 17 1 14 0;
#X connect 18 0 11 0;
#X coords 0 -1 1 1 200 15 2 100 100;
#X restore 677 234 pd;
#N canvas 0 16 450 300 (subpatch) 0;
#X obj 100 100 tgl 15 1 empty empty spectr_on_ch0 24 8 0 10 #fcfcfc
#000000 #000000 0 1;
#X obj 100 135 s \$0-to;
#X msg 100 117 spectr_on 0 \$1;
#X connect 0 0 2 0;
#X connect 2 0 1 0;
#X coords 0 -1 1 1 200 15 2 100 100;
#X restore 677 293 pd;
#N canvas 0 16 450 300 (subpatch) 0;
#X obj 100 100 tgl 15 1 empty empty spectr_on_ch1 24 8 0 10 #fcfcfc
#000000 #000000 0 1;
#X obj 100 135 s \$0-to;
#X msg 100 117 spectr_on 1 \$1;
#X connect 0 0 2 0;
#X connect 2 0 1 0;
#X coords 0 -1 1 1 200 15 2 100 100;
#X restore 677 308 pd;
#N canvas 0 16 450 300 (subpatch) 0;
#X obj 100 100 tgl 15 1 empty empty spectr_on_ch2 24 8 0 10 #fcfcfc
#000000 #000000 1 1;
#X obj 100 135 s \$0-to;
#X msg 100 117 spectr_on 2 \$1;
#X connect 0 0 2 0;
#X connect 2 0 1 0;
#X coords 0 -1 1 1 200 15 2 100 100;
#X restore 677 323 pd;
#N canvas 0 16 450 300 (subpatch) 0;
#X obj 100 100 tgl 15 1 empty empty spectr_on_ch3 24 8 0 10 #fcfcfc
#000000 #000000 0 1;
#X obj 100 135 s \$0-to;
#X msg 100 117 spectr_on 3 \$1;
#X connect 0 0 2 0;
#X connect 2 0 1 0;
#X coords 0 -1 1 1 200 15 2 100 100;
#X restore 677 338 pd;
#N canvas 0 16 450 300 (subpatch) 0;
#X obj 100 100 tgl 15 1 empty empty spectr_freeze 24 8 0 10 #fcfcfc
#000000 #000000 0 1;
#X obj 100 135 s \$0-to;
#X msg 100 117 spectr_freeze \$1;
#X connect 0 0 2 0;
#X connect 2 0 1 0;
#X coords 0 -1 1 1 200 15 2 100 100;
#X restore 677 260 pd;
#N canvas 630 273 500 408 example: 0;
#X msg 66 325 window \$1;
#X obj 175 366 route window;
#X msg 66 384 set \$1;
#X obj 66 351 tgl 24 0 empty empty window 28 12 0 10 #fcfcfc #000000
#000000 0 1;
#X obj 176 31 loadbang;
#X obj 176 77 osc~;
#X obj 212 92 osc~;
#X obj 212 71 * 2;
#X obj 252 110 osc~;
#X obj 252 89 * 2;
#X obj 290 128 osc~;
#X obj 290 107 * 2;
#X obj 328 146 osc~;
#X obj 328 125 * 2;
#X obj 364 164 osc~;
#X obj 364 143 * 2;
#X obj 403 182 osc~;
#X obj 403 161 * 2;
#X obj 442 200 osc~;
#X obj 442 179 * 2;
#X obj 61 228 tgl 15 0 empty empty empty 17 7 0 10 #fcfcfc #000000
#000000 0 1;
#X msg 61 248 scope_separate \$1;
#X obj 42 248 tgl 15 0 empty empty empty 17 7 0 10 #fcfcfc #000000
#000000 0 1;
#X msg 42 268 scope_sync \$1;
#X obj 175 343 n_sa~ 8, f 45;
#X msg 176 52 62.5;
#X msg 95 214 window \$1;
#X obj 95 187 tgl 24 0 empty empty window 28 12 0 10 #fcfcfc #000000
#000000 0 1;
#X connect 0 0 24 0;
#X connect 1 0 2 0;
#X connect 2 0 3 0;
#X connect 3 0 0 0;
#X connect 4 0 25 0;
#X connect 5 0 24 0;
#X connect 6 0 24 1;
#X connect 7 0 6 0;
#X connect 7 0 9 0;
#X connect 8 0 24 2;
#X connect 9 0 8 0;
#X connect 9 0 11 0;
#X connect 10 0 24 3;
#X connect 11 0 10 0;
#X connect 11 0 13 0;
#X connect 12 0 24 4;
#X connect 13 0 12 0;
#X connect 13 0 15 0;
#X connect 14 0 24 5;
#X connect 15 0 14 0;
#X connect 15 0 17 0;
#X connect 16 0 24 6;
#X connect 17 0 16 0;
#X connect 17 0 19 0;
#X connect 18 0 24 7;
#X connect 19 0 18 0;
#X connect 20 0 21 0;
#X connect 21 0 24 0;
#X connect 22 0 23 0;
#X connect 23 0 24 0;
#X connect 24 0 1 0;
#X connect 25 0 5 0;
#X connect 25 0 7 0;
#X connect 26 0 24 0;
#X connect 27 0 26 0;
#X restore 117 392 pd example: default;
#X connect 4 0 10 0;
#X connect 5 0 10 0;
#X connect 6 0 10 1;
#X connect 7 0 10 2;
#X connect 8 0 10 3;
#X connect 10 0 18 0;
#X coords 0 434 1 433 85 60 0;
