#N canvas 428 71 944 641 10;
#X obj 838 85 tgl 15 1 empty empty on 17 7 0 10 -262144 -1 -1 1 1;
#N canvas 639 171 297 564 generator 0;
#X obj -21 458 outlet~;
#X obj -22 126 phasor~;
#X obj 102 112 nbx 4 14 -1e+37 1e+37 0 1 empty empty freq 0 -6 0 10
-262144 -1 -1 48 256;
#X obj 102 128 vradio 12 1 1 6 empty empty empty 0 -8 0 10 -262144
-1 -1 2;
#X text 113 125 _sin;
#X text 113 137 _tri;
#X text 113 149 _saw;
#X text 113 161 _pls;
#X text 113 173 _nsi;
#X text 113 185 _ramp;
#N canvas 768 329 450 300 switch............ 0;
#X obj 35 24 inlet~;
#X obj 34 95 *~ 0;
#X obj 55 67 == 0;
#X obj 33 193 outlet~;
#X obj 365 28 inlet;
#X obj 85 24 inlet~;
#X obj 84 95 *~ 0;
#X obj 135 24 inlet~;
#X obj 134 95 *~ 0;
#X obj 195 24 inlet~;
#X obj 194 95 *~ 0;
#X obj 245 24 inlet~;
#X obj 244 95 *~ 0;
#X obj 105 67 == 1;
#X obj 155 67 == 2;
#X obj 215 67 == 3;
#X obj 265 67 == 4;
#X obj 295 24 inlet~;
#X obj 294 95 *~ 0;
#X obj 315 67 == 5;
#X connect 0 0 1 0;
#X connect 1 0 3 0;
#X connect 2 0 1 1;
#X connect 4 0 2 0;
#X connect 4 0 13 0;
#X connect 4 0 14 0;
#X connect 4 0 15 0;
#X connect 4 0 16 0;
#X connect 4 0 19 0;
#X connect 5 0 6 0;
#X connect 6 0 3 0;
#X connect 7 0 8 0;
#X connect 8 0 3 0;
#X connect 9 0 10 0;
#X connect 10 0 3 0;
#X connect 11 0 12 0;
#X connect 12 0 3 0;
#X connect 13 0 6 1;
#X connect 14 0 8 1;
#X connect 15 0 10 1;
#X connect 16 0 12 1;
#X connect 17 0 18 0;
#X connect 18 0 3 0;
#X connect 19 0 18 1;
#X restore -21 395 pd switch............;
#X obj -22 263 cos~;
#N canvas 614 365 450 300 tri 0;
#X obj 141 24 inlet~;
#X obj 139 201 outlet~;
#X obj 140 82 -~ 0.5;
#X obj 140 118 abs~;
#X obj 140 141 *~ 4;
#X obj 140 166 -~ 1;
#X connect 0 0 2 0;
#X connect 2 0 3 0;
#X connect 3 0 4 0;
#X connect 4 0 5 0;
#X connect 5 0 1 0;
#X restore -1 284 pd tri;
#N canvas 612 358 450 300 saw 0;
#X obj 141 24 inlet~;
#X obj 139 201 outlet~;
#X obj 140 82 -~ 0.5;
#X obj 140 141 *~ 2;
#X connect 0 0 2 0;
#X connect 2 0 3 0;
#X connect 3 0 1 0;
#X restore 19 314 pd saw;
#X obj 102 211 nbx 4 14 -100 100 0 1 empty empty pw 0 -6 0 10 -262144
-1 -1 1 256;
#N canvas 187 372 450 300 pls 0;
#X obj 141 24 inlet~;
#X obj 139 201 outlet~;
#X obj 140 115 *~ 100;
#X obj 140 153 clip~ -1 1;
#X obj 140 82 +~ 0;
#X obj 239 65 + -0.5;
#X obj 239 18 inlet;
#X obj 239 44 * 0.005;
#X connect 0 0 4 0;
#X connect 2 0 3 0;
#X connect 3 0 1 0;
#X connect 4 0 2 0;
#X connect 5 0 4 1;
#X connect 6 0 7 0;
#X connect 7 0 5 0;
#X restore 39 338 pd pls;
#X obj 60 364 noise~;
#X obj -20 435 *~ 0;
#X obj 102 236 nbx 4 14 -100 100 0 1 empty empty amp 0 -6 0 10 -262144
-1 -1 65 256;
#X obj 102 418 * 0.01;
#X connect 1 0 10 5;
#X connect 1 0 11 0;
#X connect 1 0 12 0;
#X connect 1 0 13 0;
#X connect 1 0 15 0;
#X connect 2 0 1 0;
#X connect 3 0 10 6;
#X connect 10 0 17 0;
#X connect 11 0 10 0;
#X connect 12 0 10 1;
#X connect 13 0 10 2;
#X connect 14 0 15 1;
#X connect 15 0 10 3;
#X connect 16 0 10 4;
#X connect 17 0 0 0;
#X connect 18 0 19 0;
#X connect 19 0 17 1;
#X coords 0 -1 1 1 49 153 2 100 100;
#X restore 81 65 pd generator;
#N canvas 639 144 297 564 generator 0;
#X obj -21 458 outlet~;
#X obj -22 126 phasor~;
#X obj 102 112 nbx 4 14 -1e+37 1e+37 0 1 empty empty freq 0 -6 0 10
-262144 -1 -1 240.24 256;
#X obj 102 128 vradio 12 1 1 6 empty empty empty 0 -8 0 10 -262144
-1 -1 2;
#X text 113 125 _sin;
#X text 113 137 _tri;
#X text 113 149 _saw;
#X text 113 161 _pls;
#X text 113 173 _nsi;
#X text 113 185 _ramp;
#N canvas 768 329 450 300 switch............ 0;
#X obj 35 24 inlet~;
#X obj 34 95 *~ 0;
#X obj 55 67 == 0;
#X obj 33 193 outlet~;
#X obj 365 28 inlet;
#X obj 85 24 inlet~;
#X obj 84 95 *~ 0;
#X obj 135 24 inlet~;
#X obj 134 95 *~ 0;
#X obj 195 24 inlet~;
#X obj 194 95 *~ 0;
#X obj 245 24 inlet~;
#X obj 244 95 *~ 0;
#X obj 105 67 == 1;
#X obj 155 67 == 2;
#X obj 215 67 == 3;
#X obj 265 67 == 4;
#X obj 295 24 inlet~;
#X obj 294 95 *~ 0;
#X obj 315 67 == 5;
#X connect 0 0 1 0;
#X connect 1 0 3 0;
#X connect 2 0 1 1;
#X connect 4 0 2 0;
#X connect 4 0 13 0;
#X connect 4 0 14 0;
#X connect 4 0 15 0;
#X connect 4 0 16 0;
#X connect 4 0 19 0;
#X connect 5 0 6 0;
#X connect 6 0 3 0;
#X connect 7 0 8 0;
#X connect 8 0 3 0;
#X connect 9 0 10 0;
#X connect 10 0 3 0;
#X connect 11 0 12 0;
#X connect 12 0 3 0;
#X connect 13 0 6 1;
#X connect 14 0 8 1;
#X connect 15 0 10 1;
#X connect 16 0 12 1;
#X connect 17 0 18 0;
#X connect 18 0 3 0;
#X connect 19 0 18 1;
#X restore -21 395 pd switch............;
#X obj -22 263 cos~;
#N canvas 614 365 450 300 tri 0;
#X obj 141 24 inlet~;
#X obj 139 201 outlet~;
#X obj 140 82 -~ 0.5;
#X obj 140 118 abs~;
#X obj 140 141 *~ 4;
#X obj 140 166 -~ 1;
#X connect 0 0 2 0;
#X connect 2 0 3 0;
#X connect 3 0 4 0;
#X connect 4 0 5 0;
#X connect 5 0 1 0;
#X restore -1 284 pd tri;
#N canvas 612 358 450 300 saw 0;
#X obj 141 24 inlet~;
#X obj 139 201 outlet~;
#X obj 140 82 -~ 0.5;
#X obj 140 141 *~ 2;
#X connect 0 0 2 0;
#X connect 2 0 3 0;
#X connect 3 0 1 0;
#X restore 19 314 pd saw;
#X obj 102 211 nbx 4 14 -100 100 0 1 empty empty pw 0 -6 0 10 -262144
-1 -1 -26 256;
#N canvas 187 372 450 300 pls 0;
#X obj 141 24 inlet~;
#X obj 139 201 outlet~;
#X obj 140 115 *~ 100;
#X obj 140 153 clip~ -1 1;
#X obj 140 82 +~ 0;
#X obj 239 65 + -0.5;
#X obj 239 18 inlet;
#X obj 239 44 * 0.005;
#X connect 0 0 4 0;
#X connect 2 0 3 0;
#X connect 3 0 1 0;
#X connect 4 0 2 0;
#X connect 5 0 4 1;
#X connect 6 0 7 0;
#X connect 7 0 5 0;
#X restore 39 338 pd pls;
#X obj 60 364 noise~;
#X obj -20 435 *~ 0;
#X obj 102 236 nbx 4 14 -100 100 0 1 empty empty amp 0 -6 0 10 -262144
-1 -1 51 256;
#X obj 102 418 * 0.01;
#X connect 1 0 10 5;
#X connect 1 0 11 0;
#X connect 1 0 12 0;
#X connect 1 0 13 0;
#X connect 1 0 15 0;
#X connect 2 0 1 0;
#X connect 3 0 10 6;
#X connect 10 0 17 0;
#X connect 11 0 10 0;
#X connect 12 0 10 1;
#X connect 13 0 10 2;
#X connect 14 0 15 1;
#X connect 15 0 10 3;
#X connect 16 0 10 4;
#X connect 17 0 0 0;
#X connect 18 0 19 0;
#X connect 19 0 17 1;
#X coords 0 -1 1 1 49 153 2 100 100;
#X restore 151 65 pd generator;
#X obj 838 120 s \$0-to;
#X obj 87 294 r \$0-to;
#X obj 569 583 s \$0-to;
#X msg 569 563 info;
#X obj 101 248 * 0.01;
#X msg 838 102 on \$1;
#X obj 80 266 +~ 0;
#X msg 168 484 size \$1 \$2;
#X obj 168 504 s \$0-to;
#X obj 821 343 s \$0-to;
#N canvas 222 282 533 423 rec 0;
#X obj 102 102 tgl 17 0 empty empty rec 17 7 0 10 -261234 -1 -1 0 1
;
#X obj 102 163 metro;
#X floatatom 140 102 5 0 100000 1 time(ms) - -;
#X obj 102 199 i;
#X obj 142 199 + 1;
#X msg 162 177 0;
#X floatatom 102 224 5 0 0 0 - - -;
#X obj 102 260 moses;
#X floatatom 226 102 5 0 9999 1 frames - -;
#X msg 149 278 0;
#X obj 102 358 outlet;
#X obj 102 125 t f b;
#X obj 102 318 makefilename %d.tga;
#X obj 238 155 t f b;
#X msg 226 266 set %08d.tga;
#X connect 0 0 11 0;
#X connect 1 0 3 0;
#X connect 2 0 1 1;
#X connect 3 0 4 0;
#X connect 3 0 6 0;
#X connect 4 0 3 1;
#X connect 5 0 3 1;
#X connect 6 0 7 0;
#X connect 7 0 12 0;
#X connect 7 1 9 0;
#X connect 8 0 13 0;
#X connect 9 0 0 0;
#X connect 11 0 1 0;
#X connect 11 1 5 0;
#X connect 12 0 10 0;
#X connect 13 0 7 1;
#X connect 13 1 14 0;
#X connect 14 0 12 0;
#X coords 0 -1 1 1 200 21 2 100 100;
#X restore 709 432 pd rec;
#X obj 81 379 route window size save, f 44;
#X obj 81 433 tgl 15 0 empty empty window 17 7 0 10 -262144 -1 -1 1
1;
#X obj 81 470 s \$0-to;
#X msg 81 450 window \$1;
#X msg 81 413 set \$1;
#X obj 294 423 bng 15 250 50 0 empty empty save_ok. 17 7 0 10 -204786
-4034 -1;
#X obj 255 438 bng 15 250 50 0 empty empty save_error. 17 7 0 10 -261234
-258113 -1;
#X obj 255 403 moses 1;
#X obj 101 230 nbx 4 14 -9999 9999 0 1 empty empty empty 52 6 0 10
-262144 -1 -1 0 256;
#X obj 171 248 * 0.01;
#X obj 150 266 +~ 0;
#X obj 171 230 nbx 4 14 -9999 9999 0 1 empty empty empty 52 6 0 10
-262144 -1 -1 0 256;
#X text 463 60 F11 - fullscreen.;
#X text 463 77 ESC - close window.;
#X obj 374 545 tgl 15 1 empty empty grid 17 7 0 10 -262144 -1 -1 0
1;
#X obj 374 582 s \$0-to;
#X msg 374 562 grid \$1;
#N canvas 44 286 449 468 color 0;
#X obj 172 149 t b f;
#X obj 172 172 +;
#X obj 100 209 +;
#X obj 172 192 t b f;
#X obj 136 149 << 8;
#X obj 100 149 << 16;
#X msg 208 243 color \$1 \$1 \$1;
#X obj 208 114 tgl 14 0 s r empty 17 7 0 10 -70738 -70738 -70738 0
1;
#X obj 154 226 * -1;
#X obj 100 114 nbx 3 14 1 255 0 1 empty empty r 0 -8 0 10 -261234 -1
-1 70 256;
#X obj 136 114 nbx 3 14 1 255 0 1 empty empty g 0 -8 0 10 -204786 -1
-1 70 256;
#X obj 172 114 nbx 3 14 1 255 0 1 empty empty b 0 -8 0 10 -204800 -1
-1 70 256;
#X obj 100 374 outlet;
#X obj 222 114 nbx 3 14 0 100 0 1 empty empty a 0 -8 0 10 -262144 -1
-1 68 256;
#X obj 258 114 nbx 3 14 0 10000 0 1 empty empty w 0 -8 0 10 -262144
-1 -1 133 256;
#X obj 100 350 pack f f f;
#X obj 222 279 t b f;
#X obj 258 279 t b f;
#X obj 258 172 * 0.01;
#X obj 222 194 * 0.01;
#X connect 0 0 1 0;
#X connect 0 1 1 1;
#X connect 1 0 3 0;
#X connect 2 0 8 0;
#X connect 2 0 15 0;
#X connect 3 0 2 0;
#X connect 3 1 2 1;
#X connect 4 0 1 0;
#X connect 5 0 2 0;
#X connect 6 0 7 0;
#X connect 8 0 6 0;
#X connect 9 0 5 0;
#X connect 10 0 4 0;
#X connect 11 0 0 0;
#X connect 13 0 19 0;
#X connect 14 0 18 0;
#X connect 15 0 12 0;
#X connect 16 0 15 0;
#X connect 16 1 15 1;
#X connect 17 0 15 0;
#X connect 17 1 15 2;
#X connect 18 0 17 0;
#X connect 19 0 16 0;
#X coords 0 -1 1 1 194 28 2 100 100;
#X restore 418 195 pd color;
#X obj 418 245 s \$0-to;
#X text 507 146 background: color transparency;
#X text 521 225 grid: color transparency width;
#X text 520 306 ch0: color transparency width;
#X text 831 256 Save image:;
#X msg 821 288 save ./image0.png;
#X text 731 405 Record sequence:;
#X msg 821 306 save /image1.png;
#N canvas 44 286 449 468 color 0;
#X obj 172 149 t b f;
#X obj 172 172 +;
#X obj 100 209 +;
#X obj 172 192 t b f;
#X obj 136 149 << 8;
#X obj 100 149 << 16;
#X msg 208 243 color \$1 \$1 \$1;
#X obj 208 114 tgl 14 0 s r empty 17 7 0 10 -2500 -2500 -2500 0 1;
#X obj 154 226 * -1;
#X obj 100 114 nbx 3 14 1 255 0 1 empty empty r 0 -8 0 10 -261234 -1
-1 1 256;
#X obj 136 114 nbx 3 14 1 255 0 1 empty empty g 0 -8 0 10 -204786 -1
-1 159 256;
#X obj 172 114 nbx 3 14 1 255 0 1 empty empty b 0 -8 0 10 -204800 -1
-1 16 256;
#X obj 100 374 outlet;
#X obj 222 114 nbx 3 14 0 100 0 1 empty empty a 0 -8 0 10 -262144 -1
-1 76 256;
#X obj 258 114 nbx 3 14 0 10000 0 1 empty empty w 0 -8 0 10 -262144
-1 -1 176 256;
#X obj 100 350 pack f f f;
#X obj 222 279 t b f;
#X obj 258 279 t b f;
#X obj 258 172 * 0.01;
#X obj 222 194 * 0.01;
#X connect 0 0 1 0;
#X connect 0 1 1 1;
#X connect 1 0 3 0;
#X connect 2 0 8 0;
#X connect 2 0 15 0;
#X connect 3 0 2 0;
#X connect 3 1 2 1;
#X connect 4 0 1 0;
#X connect 5 0 2 0;
#X connect 6 0 7 0;
#X connect 8 0 6 0;
#X connect 9 0 5 0;
#X connect 10 0 4 0;
#X connect 11 0 0 0;
#X connect 13 0 19 0;
#X connect 14 0 18 0;
#X connect 15 0 12 0;
#X connect 16 0 15 0;
#X connect 16 1 15 1;
#X connect 17 0 15 0;
#X connect 17 1 15 2;
#X connect 18 0 17 0;
#X connect 19 0 16 0;
#X coords 0 -1 1 1 194 28 2 100 100;
#X restore 418 275 pd color;
#X obj 418 325 s \$0-to;
#X msg 418 305 set 0 \$1 \$2 \$3;
#N canvas 44 286 449 468 color 0;
#X obj 172 149 t b f;
#X obj 172 172 +;
#X obj 100 209 +;
#X obj 172 192 t b f;
#X obj 136 149 << 8;
#X obj 100 149 << 16;
#X msg 208 243 color \$1 \$1 \$1;
#X obj 208 114 tgl 14 0 s r empty 17 7 0 10 -1 -1 -1 0 1;
#X obj 154 226 * -1;
#X obj 100 114 nbx 3 14 1 255 0 1 empty empty r 0 -8 0 10 -261234 -1
-1 1 256;
#X obj 136 114 nbx 3 14 1 255 0 1 empty empty g 0 -8 0 10 -204786 -1
-1 1 256;
#X obj 172 114 nbx 3 14 1 255 0 1 empty empty b 0 -8 0 10 -204800 -1
-1 1 256;
#X obj 100 374 outlet;
#X obj 222 114 nbx 3 14 0 100 0 1 empty empty a 0 -8 0 10 -262144 -1
-1 47 256;
#X obj 222 279 t b f;
#X obj 222 194 * 0.01;
#X obj 100 350 pack f f;
#X connect 0 0 1 0;
#X connect 0 1 1 1;
#X connect 1 0 3 0;
#X connect 2 0 8 0;
#X connect 2 0 16 0;
#X connect 3 0 2 0;
#X connect 3 1 2 1;
#X connect 4 0 1 0;
#X connect 5 0 2 0;
#X connect 6 0 7 0;
#X connect 8 0 6 0;
#X connect 9 0 5 0;
#X connect 10 0 4 0;
#X connect 11 0 0 0;
#X connect 13 0 15 0;
#X connect 14 0 16 0;
#X connect 14 1 16 1;
#X connect 15 0 14 0;
#X connect 16 0 12 0;
#X coords 0 -1 1 1 158 28 2 100 100;
#X restore 418 115 pd color;
#X obj 418 165 s \$0-to;
#X msg 418 225 set -1 \$1 \$2 \$3;
#X msg 418 145 set -2 \$1 \$2;
#N canvas 1 81 450 300 size 0;
#X obj 115 13 inlet;
#X obj 115 173 outlet;
#X obj 115 152 pack, f 21;
#X obj 162 128 t b f;
#X obj 115 35 unpack f f;
#X msg 115 79 set \$1;
#X msg 162 79 set \$1;
#X obj 115 102 nbx 4 14 0 9999 0 1 empty empty w -10 8 0 10 -262144
-1 -1 400 256;
#X obj 162 102 nbx 4 14 0 9999 0 1 empty empty h 50 8 0 10 -262144
-1 -1 400 256;
#X obj 162 59 t f f, f 13;
#X connect 0 0 4 0;
#X connect 2 0 1 0;
#X connect 3 0 2 0;
#X connect 3 1 2 1;
#X connect 4 0 5 0;
#X connect 4 1 9 0;
#X connect 5 0 7 0;
#X connect 6 0 8 0;
#X connect 7 0 2 0;
#X connect 8 0 3 0;
#X connect 9 0 6 0;
#X connect 9 1 2 1;
#X coords 0 -1 1 1 122 18 2 100 100;
#X restore 168 464 pd size;
#X msg 168 527 size 200 200;
#X msg 174 548 size 450 450;
#X obj 168 573 s \$0-to;
#X text 375 520 Grid:;
#X obj 709 546 s \$0-to;
#X msg 709 494 save /run/tmp/\$1;
#X obj 81 315 n_scopxy~, f 12;
#X text 260 54 simple XY-scope.;
#X text 533 534 Get info about video:;
#X msg 821 324 save ./screen.tga;
#X connect 0 0 8 0;
#X connect 1 0 9 0;
#X connect 2 0 24 0;
#X connect 4 0 54 0;
#X connect 6 0 5 0;
#X connect 7 0 9 1;
#X connect 8 0 3 0;
#X connect 9 0 54 0;
#X connect 10 0 11 0;
#X connect 13 0 53 0;
#X connect 14 0 18 0;
#X connect 14 1 47 0;
#X connect 14 2 21 0;
#X connect 15 0 17 0;
#X connect 17 0 16 0;
#X connect 18 0 15 0;
#X connect 21 0 20 0;
#X connect 21 1 19 0;
#X connect 22 0 7 0;
#X connect 23 0 24 1;
#X connect 24 0 54 1;
#X connect 25 0 23 0;
#X connect 28 0 30 0;
#X connect 30 0 29 0;
#X connect 31 0 45 0;
#X connect 37 0 12 0;
#X connect 39 0 12 0;
#X connect 40 0 42 0;
#X connect 42 0 41 0;
#X connect 43 0 46 0;
#X connect 45 0 32 0;
#X connect 46 0 44 0;
#X connect 47 0 10 0;
#X connect 48 0 50 0;
#X connect 49 0 50 0;
#X connect 53 0 52 0;
#X connect 54 0 14 0;
#X connect 57 0 12 0;
#X coords 0 641 1 640 85 60 0;
