#N canvas 551 135 736 595 10;
#X obj 213 132 tgl 15 1 empty empty on 17 7 0 10 -262144 -1 -1 1 1
;
#X msg 213 149 set -1 0 \$1;
#X obj 136 442 tgl 15 1 empty empty ch_0_on 17 7 0 10 -262144 -1 -1
1 1;
#X obj 50 437 nbx 3 14 -99999 99999 0 1 empty empty amp_0 40 6 0 10
-262144 -1 -1 100 256;
#X obj 50 453 * 0.01;
#X msg 136 460 set 0 0 \$1;
#X msg 50 471 set 0 1 \$1;
#X msg 512 297 set -1 9 \$1;
#X obj 391 131 tgl 15 1 empty empty separate 17 7 0 10 -262144 -1 -1
1 1;
#X obj 476 130 tgl 15 1 empty empty grid_and_separtor 17 7 0 10 -262144
-1 -1 1 1;
#X msg 391 149 set -1 13 \$1;
#X msg 476 149 set -1 14 \$1;
#X obj 213 167 s \$0-to;
#X obj 75 354 r \$0-to;
#X obj 303 132 tgl 15 0 empty empty window 17 7 0 10 -262144 -1 -1
1 1;
#X obj 303 167 s \$0-to;
#X msg 303 149 set -1 12 \$1;
#X obj 391 167 s \$0-to;
#X obj 476 167 s \$0-to;
#X obj 213 191 tgl 15 1 empty empty sync_dc_filter 17 7 0 10 -262144
-1 -1 0 1;
#X msg 213 208 set -1 1 \$1;
#X obj 213 226 s \$0-to;
#X obj 322 190 hradio 15 1 1 2 empty empty sync_channel 34 6 0 10 -262144
-1 -1 0;
#X msg 322 207 set -1 2 \$1;
#X obj 433 206 * 0.01;
#X obj 433 190 nbx 3 14 -1e+37 1e+37 0 1 empty empty sync_treshold
40 6 0 10 -262144 -1 -1 68 256;
#X msg 433 224 set -1 3 \$1;
#X obj 564 191 tgl 15 1 empty empty sync 17 7 0 10 -262144 -1 -1 1
1;
#X msg 564 208 set -1 4 \$1;
#X obj 213 273 nbx 4 14 1 1e+37 0 1 empty empty time 48 6 0 10 -262144
-1 -1 197 256;
#X msg 213 289 set -1 5 \$1;
#X obj 302 272 tgl 15 1 empty empty time_in_ms_or_samples 17 7 0 10
-262144 -1 -1 1 1;
#X msg 302 289 set -1 6 \$1;
#X obj 322 225 s \$0-to;
#X obj 433 242 s \$0-to;
#X obj 564 226 s \$0-to;
#X obj 213 307 s \$0-to;
#X obj 303 307 s \$0-to;
#X msg 197 356 set -1 7 \$1;
#X obj 197 340 nbx 4 14 1 1e+37 0 1 empty empty display_width 48 6
0 10 -262144 -1 -1 300 256;
#X obj 336 340 nbx 4 14 1 1e+37 0 1 empty empty display_height 48 6
0 10 -262144 -1 -1 300 256;
#X msg 336 356 set -1 8 \$1;
#X obj 197 374 s \$0-to;
#X obj 336 374 s \$0-to;
#X obj 512 315 s \$0-to;
#X obj 512 373 s \$0-to;
#X msg 512 355 set -1 10 \$1;
#X obj 512 431 s \$0-to;
#X msg 512 413 set -1 11 \$1;
#X obj 136 478 s \$0-to;
#X obj 50 489 s \$0-to;
#X obj 50 546 s \$0-to;
#X msg 50 528 set 0 2 \$1;
#X text 39 398 argument1: numer channels;
#N canvas 429 214 494 470 color 0;
#X msg 155 365 color \$1 \$1 \$1;
#X obj 208 100 tgl 15 0 empty empty empty 17 7 0 10 -1 -1 -1 0 1;
#X obj 100 100 nbx 3 15 1 255 0 1 empty empty empty 0 -8 0 10 -262144
-1 -1 1 256;
#X obj 100 366 outlet;
#X obj 136 100 nbx 3 15 1 255 0 1 empty empty empty 0 -8 0 10 -262144
-1 -1 1 256;
#X obj 172 100 nbx 3 15 1 255 0 1 empty empty empty 0 -8 0 10 -262144
-1 -1 1 256;
#X obj 180 140 t b f;
#X obj 180 160 +, f 5;
#X obj 100 199 +;
#X obj 180 180 t b f;
#X obj 140 140 << 8;
#X obj 100 140 << 16;
#X obj 100 218 * -1;
#X connect 0 0 1 0;
#X connect 2 0 11 0;
#X connect 4 0 10 0;
#X connect 5 0 6 0;
#X connect 6 0 7 0;
#X connect 6 1 7 1;
#X connect 7 0 9 0;
#X connect 8 0 12 0;
#X connect 9 0 8 0;
#X connect 9 1 8 1;
#X connect 10 0 7 0;
#X connect 11 0 8 0;
#X connect 12 0 3 0;
#X connect 12 0 0 0;
#X coords 0 -1 1 1 123 15 2 100 100;
#X restore 512 280 pd color;
#X obj 312 444 tgl 15 1 empty empty ch_1_on 17 7 0 10 -262144 -1 -1
1 1;
#X obj 226 439 nbx 3 14 -99999 99999 0 1 empty empty amp_1 40 6 0 10
-262144 -1 -1 100 256;
#X obj 226 455 * 0.01;
#X obj 312 480 s \$0-to;
#X obj 226 491 s \$0-to;
#X obj 226 548 s \$0-to;
#X text 55 565 color channel 0;
#X text 231 565 color channel 1;
#X text 596 299 color background;
#X text 601 362 color grid;
#X text 597 424 color separator;
#X msg 226 473 set 1 1 \$1;
#X msg 312 461 set 1 0 \$1;
#X msg 226 530 set 1 2 \$1;
#X obj 67 103 phasor~ 200;
#X obj 118 155 osc~ 100;
#X floatatom 67 84 5 0 0 0 - - -;
#X floatatom 118 136 5 0 0 0 - - -;
#N canvas 429 214 494 470 color 0;
#X msg 155 365 color \$1 \$1 \$1;
#X obj 208 100 tgl 15 0 empty empty empty 17 7 0 10 -29128 -29128 -29128
0 1;
#X obj 100 100 nbx 3 15 1 255 0 1 empty empty empty 0 -8 0 10 -262144
-1 -1 30 256;
#X obj 100 366 outlet;
#X obj 136 100 nbx 3 15 1 255 0 1 empty empty empty 0 -8 0 10 -262144
-1 -1 30 256;
#X obj 172 100 nbx 3 15 1 255 0 1 empty empty empty 0 -8 0 10 -262144
-1 -1 30 256;
#X obj 180 140 t b f;
#X obj 180 160 +, f 5;
#X obj 100 199 +;
#X obj 180 180 t b f;
#X obj 140 140 << 8;
#X obj 100 140 << 16;
#X obj 100 218 * -1;
#X connect 0 0 1 0;
#X connect 2 0 11 0;
#X connect 4 0 10 0;
#X connect 5 0 6 0;
#X connect 6 0 7 0;
#X connect 6 1 7 1;
#X connect 7 0 9 0;
#X connect 8 0 12 0;
#X connect 9 0 8 0;
#X connect 9 1 8 1;
#X connect 10 0 7 0;
#X connect 11 0 8 0;
#X connect 12 0 3 0;
#X connect 12 0 0 0;
#X coords 0 -1 1 1 123 15 2 100 100;
#X restore 512 338 pd color;
#N canvas 429 214 494 470 color 0;
#X msg 155 365 color \$1 \$1 \$1;
#X obj 208 100 tgl 15 0 empty empty empty 17 7 0 10 -29128 -29128 -29128
0 1;
#X obj 100 100 nbx 3 15 1 255 0 1 empty empty empty 0 -8 0 10 -262144
-1 -1 30 256;
#X obj 100 366 outlet;
#X obj 136 100 nbx 3 15 1 255 0 1 empty empty empty 0 -8 0 10 -262144
-1 -1 30 256;
#X obj 172 100 nbx 3 15 1 255 0 1 empty empty empty 0 -8 0 10 -262144
-1 -1 30 256;
#X obj 180 140 t b f;
#X obj 180 160 +, f 5;
#X obj 100 199 +;
#X obj 180 180 t b f;
#X obj 140 140 << 8;
#X obj 100 140 << 16;
#X obj 100 218 * -1;
#X connect 0 0 1 0;
#X connect 2 0 11 0;
#X connect 4 0 10 0;
#X connect 5 0 6 0;
#X connect 6 0 7 0;
#X connect 6 1 7 1;
#X connect 7 0 9 0;
#X connect 8 0 12 0;
#X connect 9 0 8 0;
#X connect 9 1 8 1;
#X connect 10 0 7 0;
#X connect 11 0 8 0;
#X connect 12 0 3 0;
#X connect 12 0 0 0;
#X coords 0 -1 1 1 123 15 2 100 100;
#X restore 512 396 pd color;
#N canvas 429 214 494 470 color 0;
#X msg 155 365 color \$1 \$1 \$1;
#X obj 208 100 tgl 15 0 empty empty empty 17 7 0 10 -167937 -167937
-167937 0 1;
#X obj 100 100 nbx 3 15 1 255 0 1 empty empty empty 0 -8 0 10 -262144
-1 -1 164 256;
#X obj 100 366 outlet;
#X obj 136 100 nbx 3 15 1 255 0 1 empty empty empty 0 -8 0 10 -262144
-1 -1 1 256;
#X obj 172 100 nbx 3 15 1 255 0 1 empty empty empty 0 -8 0 10 -262144
-1 -1 1 256;
#X obj 180 140 t b f;
#X obj 180 160 +, f 5;
#X obj 100 199 +;
#X obj 180 180 t b f;
#X obj 140 140 << 8;
#X obj 100 140 << 16;
#X obj 100 218 * -1;
#X connect 0 0 1 0;
#X connect 2 0 11 0;
#X connect 4 0 10 0;
#X connect 5 0 6 0;
#X connect 6 0 7 0;
#X connect 6 1 7 1;
#X connect 7 0 9 0;
#X connect 8 0 12 0;
#X connect 9 0 8 0;
#X connect 9 1 8 1;
#X connect 10 0 7 0;
#X connect 11 0 8 0;
#X connect 12 0 3 0;
#X connect 12 0 0 0;
#X coords 0 -1 1 1 123 15 2 100 100;
#X restore 50 511 pd color;
#N canvas 429 214 494 470 color 0;
#X msg 155 365 color \$1 \$1 \$1;
#X obj 208 100 tgl 15 0 empty empty empty 17 7 0 10 -1921 -1921 -1921
0 1;
#X obj 100 100 nbx 3 15 1 255 0 1 empty empty empty 0 -8 0 10 -262144
-1 -1 1 256;
#X obj 100 366 outlet;
#X obj 136 100 nbx 3 15 1 255 0 1 empty empty empty 0 -8 0 10 -262144
-1 -1 121 256;
#X obj 172 100 nbx 3 15 1 255 0 1 empty empty empty 0 -8 0 10 -262144
-1 -1 1 256;
#X obj 180 140 t b f;
#X obj 180 160 +, f 5;
#X obj 100 199 +;
#X obj 180 180 t b f;
#X obj 140 140 << 8;
#X obj 100 140 << 16;
#X obj 100 218 * -1;
#X connect 0 0 1 0;
#X connect 2 0 11 0;
#X connect 4 0 10 0;
#X connect 5 0 6 0;
#X connect 6 0 7 0;
#X connect 6 1 7 1;
#X connect 7 0 9 0;
#X connect 8 0 12 0;
#X connect 9 0 8 0;
#X connect 9 1 8 1;
#X connect 10 0 7 0;
#X connect 11 0 8 0;
#X connect 12 0 3 0;
#X connect 12 0 0 0;
#X coords 0 -1 1 1 123 15 2 100 100;
#X restore 226 513 pd color;
#X obj 67 375 n_scop~ 2;
#X text 387 521 simple oscilloscope with many channels(up to 32) and
synchronization.;
#X connect 0 0 1 0;
#X connect 1 0 12 0;
#X connect 2 0 5 0;
#X connect 3 0 4 0;
#X connect 4 0 6 0;
#X connect 5 0 49 0;
#X connect 6 0 50 0;
#X connect 7 0 44 0;
#X connect 8 0 10 0;
#X connect 9 0 11 0;
#X connect 10 0 17 0;
#X connect 11 0 18 0;
#X connect 13 0 77 0;
#X connect 14 0 16 0;
#X connect 16 0 15 0;
#X connect 19 0 20 0;
#X connect 20 0 21 0;
#X connect 22 0 23 0;
#X connect 23 0 33 0;
#X connect 24 0 26 0;
#X connect 25 0 24 0;
#X connect 26 0 34 0;
#X connect 27 0 28 0;
#X connect 28 0 35 0;
#X connect 29 0 30 0;
#X connect 30 0 36 0;
#X connect 31 0 32 0;
#X connect 32 0 37 0;
#X connect 38 0 42 0;
#X connect 39 0 38 0;
#X connect 40 0 41 0;
#X connect 41 0 43 0;
#X connect 46 0 45 0;
#X connect 48 0 47 0;
#X connect 52 0 51 0;
#X connect 54 0 7 0;
#X connect 55 0 67 0;
#X connect 56 0 57 0;
#X connect 57 0 66 0;
#X connect 66 0 59 0;
#X connect 67 0 58 0;
#X connect 68 0 60 0;
#X connect 69 0 77 0;
#X connect 70 0 77 1;
#X connect 71 0 69 0;
#X connect 72 0 70 0;
#X connect 73 0 46 0;
#X connect 74 0 48 0;
#X connect 75 0 52 0;
#X connect 76 0 68 0;
#X coords 0 595 1 594 85 60 0;
