#N canvas 253 365 934 359 10;
#N canvas 639 171 297 564 generator 0;
#X obj -21 458 outlet~;
#X obj -22 126 phasor~;
#X obj 102 112 nbx 4 14 -1e+37 1e+37 0 1 empty empty freq 0 -6 0 10
#fcfcfc #000000 #000000 15 256;
#X obj 102 128 vradio 12 1 1 6 empty empty empty 0 -8 0 10 #fcfcfc
#000000 #000000 2;
#X text 113 125 _sin;
#X text 113 137 _tri;
#X text 113 149 _saw;
#X text 113 161 _pls;
#X text 113 173 _nsi;
#X text 113 185 _ramp;
#N canvas 768 329 450 300 switch............ 0;
#X obj 35 24 inlet~;
#X obj 34 95 *~ 0;
#X obj 55 67 == 0;
#X obj 33 193 outlet~;
#X obj 365 28 inlet;
#X obj 85 24 inlet~;
#X obj 84 95 *~ 0;
#X obj 135 24 inlet~;
#X obj 134 95 *~ 0;
#X obj 195 24 inlet~;
#X obj 194 95 *~ 0;
#X obj 245 24 inlet~;
#X obj 244 95 *~ 0;
#X obj 105 67 == 1;
#X obj 155 67 == 2;
#X obj 215 67 == 3;
#X obj 265 67 == 4;
#X obj 295 24 inlet~;
#X obj 294 95 *~ 0;
#X obj 315 67 == 5;
#X connect 0 0 1 0;
#X connect 1 0 3 0;
#X connect 2 0 1 1;
#X connect 4 0 2 0;
#X connect 4 0 13 0;
#X connect 4 0 14 0;
#X connect 4 0 15 0;
#X connect 4 0 16 0;
#X connect 4 0 19 0;
#X connect 5 0 6 0;
#X connect 6 0 3 0;
#X connect 7 0 8 0;
#X connect 8 0 3 0;
#X connect 9 0 10 0;
#X connect 10 0 3 0;
#X connect 11 0 12 0;
#X connect 12 0 3 0;
#X connect 13 0 6 1;
#X connect 14 0 8 1;
#X connect 15 0 10 1;
#X connect 16 0 12 1;
#X connect 17 0 18 0;
#X connect 18 0 3 0;
#X connect 19 0 18 1;
#X restore -21 395 pd switch............;
#X obj -22 263 cos~;
#N canvas 614 365 450 300 tri 0;
#X obj 141 24 inlet~;
#X obj 139 201 outlet~;
#X obj 140 82 -~ 0.5;
#X obj 140 118 abs~;
#X obj 140 141 *~ 4;
#X obj 140 166 -~ 1;
#X connect 0 0 2 0;
#X connect 2 0 3 0;
#X connect 3 0 4 0;
#X connect 4 0 5 0;
#X connect 5 0 1 0;
#X restore -1 284 pd tri;
#N canvas 612 358 450 300 saw 0;
#X obj 141 24 inlet~;
#X obj 139 201 outlet~;
#X obj 140 82 -~ 0.5;
#X obj 140 141 *~ 2;
#X connect 0 0 2 0;
#X connect 2 0 3 0;
#X connect 3 0 1 0;
#X restore 19 314 pd saw;
#X obj 102 211 nbx 4 14 -100 100 0 1 empty empty pw 0 -6 0 10 #fcfcfc
#000000 #000000 0 256;
#N canvas 187 372 450 300 pls 0;
#X obj 141 24 inlet~;
#X obj 139 201 outlet~;
#X obj 140 115 *~ 100;
#X obj 140 153 clip~ -1 1;
#X obj 140 82 +~ 0;
#X obj 239 65 + -0.5;
#X obj 239 18 inlet;
#X obj 239 44 * 0.005;
#X connect 0 0 4 0;
#X connect 2 0 3 0;
#X connect 3 0 1 0;
#X connect 4 0 2 0;
#X connect 5 0 4 1;
#X connect 6 0 7 0;
#X connect 7 0 5 0;
#X restore 39 338 pd pls;
#X obj 60 364 noise~;
#X obj -20 435 *~ 0;
#X obj 102 236 nbx 4 14 -100 100 0 1 empty empty amp 0 -6 0 10 #fcfcfc
#000000 #000000 85 256;
#X obj 102 418 * 0.01;
#X connect 1 0 10 5;
#X connect 1 0 11 0;
#X connect 1 0 12 0;
#X connect 1 0 13 0;
#X connect 1 0 15 0;
#X connect 2 0 1 0;
#X connect 3 0 10 6;
#X connect 10 0 17 0;
#X connect 11 0 10 0;
#X connect 12 0 10 1;
#X connect 13 0 10 2;
#X connect 14 0 15 1;
#X connect 15 0 10 3;
#X connect 16 0 10 4;
#X connect 17 0 0 0;
#X connect 18 0 19 0;
#X connect 19 0 17 1;
#X coords 0 -1 1 1 49 153 2 100 100;
#X restore 27 46 pd generator;
#N canvas 639 144 297 564 generator 0;
#X obj -21 458 outlet~;
#X obj -22 126 phasor~;
#X obj 102 112 nbx 4 14 -1e+37 1e+37 0 1 empty empty freq 0 -6 0 10
#fcfcfc #000000 #000000 149.64 256;
#X obj 102 128 vradio 12 1 1 6 empty empty empty 0 -8 0 10 #fcfcfc
#000000 #000000 3;
#X text 113 125 _sin;
#X text 113 137 _tri;
#X text 113 149 _saw;
#X text 113 161 _pls;
#X text 113 173 _nsi;
#X text 113 185 _ramp;
#N canvas 768 329 450 300 switch............ 0;
#X obj 35 24 inlet~;
#X obj 34 95 *~ 0;
#X obj 55 67 == 0;
#X obj 33 193 outlet~;
#X obj 365 28 inlet;
#X obj 85 24 inlet~;
#X obj 84 95 *~ 0;
#X obj 135 24 inlet~;
#X obj 134 95 *~ 0;
#X obj 195 24 inlet~;
#X obj 194 95 *~ 0;
#X obj 245 24 inlet~;
#X obj 244 95 *~ 0;
#X obj 105 67 == 1;
#X obj 155 67 == 2;
#X obj 215 67 == 3;
#X obj 265 67 == 4;
#X obj 295 24 inlet~;
#X obj 294 95 *~ 0;
#X obj 315 67 == 5;
#X connect 0 0 1 0;
#X connect 1 0 3 0;
#X connect 2 0 1 1;
#X connect 4 0 2 0;
#X connect 4 0 13 0;
#X connect 4 0 14 0;
#X connect 4 0 15 0;
#X connect 4 0 16 0;
#X connect 4 0 19 0;
#X connect 5 0 6 0;
#X connect 6 0 3 0;
#X connect 7 0 8 0;
#X connect 8 0 3 0;
#X connect 9 0 10 0;
#X connect 10 0 3 0;
#X connect 11 0 12 0;
#X connect 12 0 3 0;
#X connect 13 0 6 1;
#X connect 14 0 8 1;
#X connect 15 0 10 1;
#X connect 16 0 12 1;
#X connect 17 0 18 0;
#X connect 18 0 3 0;
#X connect 19 0 18 1;
#X restore -21 395 pd switch............;
#X obj -22 263 cos~;
#N canvas 614 365 450 300 tri 0;
#X obj 141 24 inlet~;
#X obj 139 201 outlet~;
#X obj 140 82 -~ 0.5;
#X obj 140 118 abs~;
#X obj 140 141 *~ 4;
#X obj 140 166 -~ 1;
#X connect 0 0 2 0;
#X connect 2 0 3 0;
#X connect 3 0 4 0;
#X connect 4 0 5 0;
#X connect 5 0 1 0;
#X restore -1 284 pd tri;
#N canvas 612 358 450 300 saw 0;
#X obj 141 24 inlet~;
#X obj 139 201 outlet~;
#X obj 140 82 -~ 0.5;
#X obj 140 141 *~ 2;
#X connect 0 0 2 0;
#X connect 2 0 3 0;
#X connect 3 0 1 0;
#X restore 19 314 pd saw;
#X obj 102 211 nbx 4 14 -100 100 0 1 empty empty pw 0 -6 0 10 #fcfcfc
#000000 #000000 28 256;
#N canvas 187 372 450 300 pls 0;
#X obj 141 24 inlet~;
#X obj 139 201 outlet~;
#X obj 140 115 *~ 100;
#X obj 140 153 clip~ -1 1;
#X obj 140 82 +~ 0;
#X obj 239 65 + -0.5;
#X obj 239 18 inlet;
#X obj 239 44 * 0.005;
#X connect 0 0 4 0;
#X connect 2 0 3 0;
#X connect 3 0 1 0;
#X connect 4 0 2 0;
#X connect 5 0 4 1;
#X connect 6 0 7 0;
#X connect 7 0 5 0;
#X restore 39 338 pd pls;
#X obj 60 364 noise~;
#X obj -20 435 *~ 0;
#X obj 102 236 nbx 4 14 -100 100 0 1 empty empty amp 0 -6 0 10 #fcfcfc
#000000 #000000 15 256;
#X obj 102 418 * 0.01;
#X connect 1 0 10 5;
#X connect 1 0 11 0;
#X connect 1 0 12 0;
#X connect 1 0 13 0;
#X connect 1 0 15 0;
#X connect 2 0 1 0;
#X connect 3 0 10 6;
#X connect 10 0 17 0;
#X connect 11 0 10 0;
#X connect 12 0 10 1;
#X connect 13 0 10 2;
#X connect 14 0 15 1;
#X connect 15 0 10 3;
#X connect 16 0 10 4;
#X connect 17 0 0 0;
#X connect 18 0 19 0;
#X connect 19 0 17 1;
#X coords 0 -1 1 1 49 153 2 100 100;
#X restore 97 46 pd generator;
#X obj 33 264 r \$0-to;
#X obj 47 218 * 0.01;
#X obj 26 236 +~ 0;
#X obj 47 202 nbx 4 14 -9999 9999 0 1 empty empty empty 52 6 0 10 #fcfcfc
#000000 #000000 0 256;
#X obj 117 218 * 0.01;
#X obj 96 236 +~ 0;
#X obj 117 202 nbx 4 14 -9999 9999 0 1 empty empty empty 52 6 0 10
#fcfcfc #000000 #000000 0 256;
#X text 712 27 ESC - close window.;
#X text 721 8 simple XY-scope.;
#N canvas 0 16 450 300 (subpatch) 0;
#X obj 100 100 tgl 15 0 empty empty window 24 8 0 10 #fcfcfc #000000
#000000 0 1;
#X obj 100 135 s \$0-to;
#X msg 100 117 window \$1;
#X obj 100 28 r \$0-from;
#X msg 100 74 set \$1;
#X obj 100 51 route window;
#X connect 0 0 2 0;
#X connect 2 0 1 0;
#X connect 3 0 5 0;
#X connect 4 0 0 0;
#X connect 5 0 4 0;
#X coords 0 -1 1 1 232 15 2 100 100;
#X restore 661 46 pd;
#N canvas 0 16 450 300 (subpatch) 0;
#X obj 100 141 s \$0-to;
#X msg 100 119 window_h \$1;
#X obj 100 100 nbx 4 15 1 9999 0 1 empty empty window_height 48 8 0
10 #fcfcfc #000000 #000000 300 256;
#X obj 100 28 r \$0-from;
#X msg 100 74 set \$1;
#X obj 100 52 route window_h;
#X connect 1 0 0 0;
#X connect 2 0 1 0;
#X connect 3 0 5 0;
#X connect 4 0 2 0;
#X connect 5 0 4 0;
#X coords 0 -1 1 1 232 15 2 100 100;
#X restore 661 106 pd;
#N canvas 0 16 450 300 (subpatch) 0;
#X obj 100 141 s \$0-to;
#X obj 100 100 nbx 4 15 -9999 9999 0 1 empty empty window_ox 48 8 0
10 #fcfcfc #000000 #000000 543 256;
#X msg 100 119 window_ox \$1;
#X obj 100 28 r \$0-from;
#X obj 100 51 route window_ox;
#X msg 100 74 set \$1;
#X connect 1 0 2 0;
#X connect 2 0 0 0;
#X connect 3 0 4 0;
#X connect 4 0 5 0;
#X connect 5 0 1 0;
#X coords 0 -1 1 1 232 15 2 100 100;
#X restore 661 61 pd;
#N canvas 0 16 450 300 (subpatch) 0;
#X obj 100 141 s \$0-to;
#X obj 100 100 nbx 4 15 -9999 9999 0 1 empty empty window_oy 48 8 0
10 #fcfcfc #000000 #000000 40 256;
#X msg 100 119 window_oy \$1;
#X obj 100 28 r \$0-from;
#X msg 100 74 set \$1;
#X obj 100 52 route window_oy;
#X connect 1 0 2 0;
#X connect 2 0 0 0;
#X connect 3 0 5 0;
#X connect 4 0 1 0;
#X connect 5 0 4 0;
#X coords 0 -1 1 1 232 15 2 100 100;
#X restore 661 76 pd;
#N canvas 0 16 450 300 (subpatch) 0;
#X obj 100 141 s \$0-to;
#X obj 100 100 nbx 4 15 1 256 0 1 empty empty window_fps 48 8 0 10
#fcfcfc #000000 #000000 20 256;
#X msg 100 119 window_fps \$1;
#X connect 1 0 2 0;
#X connect 2 0 0 0;
#X coords 0 -1 1 1 232 15 2 100 100;
#X restore 661 121 pd;
#N canvas 0 16 450 300 (subpatch) 0;
#X obj 100 141 s \$0-to;
#X obj 100 100 nbx 4 15 1 9999 0 1 empty empty window_width 48 8 0
10 #fcfcfc #000000 #000000 300 256;
#X obj 100 28 r \$0-from;
#X msg 100 74 set \$1;
#X msg 100 119 window_w \$1;
#X obj 100 52 route window_w;
#X connect 1 0 4 0;
#X connect 2 0 5 0;
#X connect 3 0 1 0;
#X connect 4 0 0 0;
#X connect 5 0 3 0;
#X coords 0 -1 1 1 232 15 2 100 100;
#X restore 661 91 pd;
#N canvas 0 16 450 300 (subpatch) 0;
#X obj 100 100 tgl 15 1 empty empty grid_view 24 8 0 10 #fcfcfc #000000
#000000 0 1;
#X obj 100 135 s \$0-to;
#X msg 100 117 grid_view \$1;
#X connect 0 0 2 0;
#X connect 2 0 1 0;
#X coords 0 -1 1 1 232 15 2 100 100;
#X restore 661 136 pd;
#N canvas 0 16 450 300 (subpatch) 0;
#X obj 100 157 s \$0-to;
#X obj 100 100 nbx 4 15 0 31 0 1 empty empty grid_ver 48 8 0 10 #fcfcfc
#000000 #000000 3 256;
#X msg 100 131 grid_ver \$1;
#X connect 1 0 2 0;
#X connect 2 0 0 0;
#X coords 0 -1 1 1 232 15 2 100 100;
#X restore 661 151 pd;
#N canvas 0 16 450 300 (subpatch) 0;
#X obj 100 157 s \$0-to;
#X obj 100 100 nbx 4 15 0 31 0 1 empty empty grid_hor 48 8 0 10 #fcfcfc
#000000 #000000 1 256;
#X msg 100 130 grid_hor \$1;
#X connect 1 0 2 0;
#X connect 2 0 0 0;
#X coords 0 -1 1 1 232 15 2 100 100;
#X restore 661 166 pd;
#N canvas 0 16 450 300 (subpatch) 0;
#X obj 100 100 tgl 15 1 empty empty freeze 24 8 0 10 #fcfcfc #000000
#000000 1 1;
#X obj 100 135 s \$0-to;
#X msg 100 117 freeze \$1;
#X connect 0 0 2 0;
#X connect 2 0 1 0;
#X coords 0 -1 1 1 232 15 2 100 100;
#X restore 661 181 pd;
#X obj 27 305 s \$0-from;
#N canvas 44 271 449 468 color 0;
#X obj 172 149 t b f;
#X obj 172 172 +;
#X obj 100 210 +;
#X obj 172 192 t b f;
#X obj 136 149 << 8;
#X obj 100 149 << 16;
#X msg 208 246 color \$1 \$1 \$1;
#X obj 208 100 tgl 15 0 s r empty 17 7 0 10 #130a09 #130a09 #130a09
0 1;
#X obj 154 228 * -1;
#X obj 100 100 nbx 3 15 1 255 0 1 empty empty empty 0 -8 0 10 #fcc4c4
#000000 #000000 19 256;
#X obj 136 100 nbx 3 15 1 255 0 1 empty empty empty 0 -8 0 10 #c4fcc4
#000000 #000000 10 256;
#X obj 172 100 nbx 3 15 1 255 0 1 empty empty empty 0 -8 0 10 #c4fcfc
#000000 #000000 10 256;
#X obj 223 100 nbx 3 15 0 100 0 1 empty empty background 38 8 0 10
#fcfcfc #000000 #000000 28 256;
#X obj 223 279 t b f;
#X obj 223 194 * 0.01;
#X obj 100 356 s \$0-to;
#X obj 100 311 pack f f;
#X msg 100 334 par_back \$1 \$2;
#X connect 0 0 1 0;
#X connect 0 1 1 1;
#X connect 1 0 3 0;
#X connect 2 0 8 0;
#X connect 2 0 16 0;
#X connect 3 0 2 0;
#X connect 3 1 2 1;
#X connect 4 0 1 0;
#X connect 5 0 2 0;
#X connect 6 0 7 0;
#X connect 8 0 6 0;
#X connect 9 0 5 0;
#X connect 10 0 4 0;
#X connect 11 0 0 0;
#X connect 12 0 14 0;
#X connect 13 0 16 0;
#X connect 13 1 16 1;
#X connect 14 0 13 0;
#X connect 16 0 17 0;
#X connect 17 0 15 0;
#X coords 0 -1 1 1 232 15 2 100 100;
#X restore 661 196 pd color;
#N canvas 44 271 449 468 color 0;
#X obj 172 149 t b f;
#X obj 172 172 +;
#X obj 100 210 +;
#X obj 172 192 t b f;
#X obj 136 149 << 8;
#X obj 100 149 << 16;
#X msg 208 246 color \$1 \$1 \$1;
#X obj 208 100 tgl 15 0 s r empty 17 7 0 10 #323231 #323231 #323231
0 1;
#X obj 154 228 * -1;
#X obj 100 100 nbx 3 15 1 255 0 1 empty empty empty 0 -8 0 10 #fcc4c4
#000000 #000000 50 256;
#X obj 136 100 nbx 3 15 1 255 0 1 empty empty empty 0 -8 0 10 #c4fcc4
#000000 #000000 50 256;
#X obj 172 100 nbx 3 15 1 255 0 1 empty empty empty 0 -8 0 10 #c4fcfc
#000000 #000000 50 256;
#X obj 223 100 nbx 3 15 0 100 0 1 empty empty empty 0 -8 0 10 #fcfcfc
#000000 #000000 100 256;
#X obj 259 100 nbx 3 15 0 10000 0 1 empty empty grid 40 8 0 10 #bbbbbb
#000000 #000000 102 256;
#X obj 100 311 pack f f f;
#X obj 223 279 t b f;
#X obj 259 279 t b f;
#X obj 259 172 * 0.01;
#X obj 223 194 * 0.01;
#X obj 100 356 s \$0-to;
#X msg 100 334 par_grid \$1 \$2 \$3;
#X connect 0 0 1 0;
#X connect 0 1 1 1;
#X connect 1 0 3 0;
#X connect 2 0 8 0;
#X connect 2 0 14 0;
#X connect 3 0 2 0;
#X connect 3 1 2 1;
#X connect 4 0 1 0;
#X connect 5 0 2 0;
#X connect 6 0 7 0;
#X connect 8 0 6 0;
#X connect 9 0 5 0;
#X connect 10 0 4 0;
#X connect 11 0 0 0;
#X connect 12 0 18 0;
#X connect 13 0 17 0;
#X connect 14 0 20 0;
#X connect 15 0 14 0;
#X connect 15 1 14 1;
#X connect 16 0 14 0;
#X connect 16 1 14 2;
#X connect 17 0 16 0;
#X connect 18 0 15 0;
#X connect 20 0 19 0;
#X coords 0 -1 1 1 232 15 2 100 100;
#X restore 661 211 pd color;
#N canvas 44 271 449 468 color 0;
#X obj 172 149 t b f;
#X obj 172 172 +;
#X obj 100 210 +;
#X obj 172 192 t b f;
#X obj 136 149 << 8;
#X obj 100 149 << 16;
#X msg 208 246 color \$1 \$1 \$1;
#X obj 208 100 tgl 15 0 s r empty 17 7 0 10 #01cb00 #01cb00 #01cb00
0 1;
#X obj 154 228 * -1;
#X obj 100 100 nbx 3 15 1 255 0 1 empty empty empty 0 -8 0 10 #fcc4c4
#000000 #000000 1 256;
#X obj 136 100 nbx 3 15 1 255 0 1 empty empty empty 0 -8 0 10 #c4fcc4
#000000 #000000 203 256;
#X obj 172 100 nbx 3 15 1 255 0 1 empty empty empty 0 -8 0 10 #c4fcfc
#000000 #000000 1 256;
#X obj 223 100 nbx 3 15 0 100 0 1 empty empty empty 0 -8 0 10 #fcfcfc
#000000 #000000 80 256;
#X obj 259 100 nbx 3 15 0 10000 0 1 empty empty ch0 40 8 0 10 #bbbbbb
#000000 #000000 76 256;
#X obj 100 311 pack f f f;
#X obj 223 279 t b f;
#X obj 259 279 t b f;
#X obj 259 172 * 0.01;
#X obj 223 194 * 0.01;
#X obj 100 356 s \$0-to;
#X msg 100 333 par_channel 0 \$1 \$2 \$3;
#X connect 0 0 1 0;
#X connect 0 1 1 1;
#X connect 1 0 3 0;
#X connect 2 0 8 0;
#X connect 2 0 14 0;
#X connect 3 0 2 0;
#X connect 3 1 2 1;
#X connect 4 0 1 0;
#X connect 5 0 2 0;
#X connect 6 0 7 0;
#X connect 8 0 6 0;
#X connect 9 0 5 0;
#X connect 10 0 4 0;
#X connect 11 0 0 0;
#X connect 12 0 18 0;
#X connect 13 0 17 0;
#X connect 14 0 20 0;
#X connect 15 0 14 0;
#X connect 15 1 14 1;
#X connect 16 0 14 0;
#X connect 16 1 14 2;
#X connect 17 0 16 0;
#X connect 18 0 15 0;
#X connect 20 0 19 0;
#X coords 0 -1 1 1 232 15 2 100 100;
#X restore 661 226 pd color;
#N canvas 44 271 449 468 color 0;
#X obj 172 149 t b f;
#X obj 172 172 +;
#X obj 100 210 +;
#X obj 172 192 t b f;
#X obj 136 149 << 8;
#X obj 100 149 << 16;
#X msg 208 246 color \$1 \$1 \$1;
#X obj 208 100 tgl 15 0 s r empty 17 7 0 10 #ffa201 #ffa201 #ffa201
0 1;
#X obj 154 228 * -1;
#X obj 100 100 nbx 3 15 1 255 0 1 empty empty empty 0 -8 0 10 #fcc4c4
#000000 #000000 255 256;
#X obj 136 100 nbx 3 15 1 255 0 1 empty empty empty 0 -8 0 10 #c4fcc4
#000000 #000000 162 256;
#X obj 172 100 nbx 3 15 1 255 0 1 empty empty empty 0 -8 0 10 #c4fcfc
#000000 #000000 2 256;
#X obj 223 100 nbx 3 15 0 100 0 1 empty empty empty 0 -8 0 10 #fcfcfc
#000000 #000000 100 256;
#X obj 259 100 nbx 3 15 0 10000 0 1 empty empty ch1 40 8 0 10 #bbbbbb
#000000 #000000 176 256;
#X obj 100 311 pack f f f;
#X obj 223 279 t b f;
#X obj 259 279 t b f;
#X obj 259 172 * 0.01;
#X obj 223 194 * 0.01;
#X obj 100 356 s \$0-to;
#X msg 99 333 par_channel 1 \$1 \$2 \$3;
#X connect 0 0 1 0;
#X connect 0 1 1 1;
#X connect 1 0 3 0;
#X connect 2 0 8 0;
#X connect 2 0 14 0;
#X connect 3 0 2 0;
#X connect 3 1 2 1;
#X connect 4 0 1 0;
#X connect 5 0 2 0;
#X connect 6 0 7 0;
#X connect 8 0 6 0;
#X connect 9 0 5 0;
#X connect 10 0 4 0;
#X connect 11 0 0 0;
#X connect 12 0 18 0;
#X connect 13 0 17 0;
#X connect 14 0 20 0;
#X connect 15 0 14 0;
#X connect 15 1 14 1;
#X connect 16 0 14 0;
#X connect 16 1 14 2;
#X connect 17 0 16 0;
#X connect 18 0 15 0;
#X connect 20 0 19 0;
#X coords 0 -1 1 1 232 15 2 100 100;
#X restore 661 241 pd color;
#N canvas 44 271 449 468 color 0;
#X obj 172 149 t b f;
#X obj 172 172 +;
#X obj 100 210 +;
#X obj 172 192 t b f;
#X obj 136 149 << 8;
#X obj 100 149 << 16;
#X msg 208 246 color \$1 \$1 \$1;
#X obj 208 100 tgl 15 0 s r empty 17 7 0 10 #fc0201 #fc0201 #fc0201
0 1;
#X obj 154 228 * -1;
#X obj 100 100 nbx 3 15 1 255 0 1 empty empty empty 0 -8 0 10 #fcc4c4
#000000 #000000 252 256;
#X obj 136 100 nbx 3 15 1 255 0 1 empty empty empty 0 -8 0 10 #c4fcc4
#000000 #000000 2 256;
#X obj 172 100 nbx 3 15 1 255 0 1 empty empty empty 0 -8 0 10 #c4fcfc
#000000 #000000 2 256;
#X obj 223 100 nbx 3 15 0 100 0 1 empty empty empty 0 -8 0 10 #fcfcfc
#000000 #000000 74 256;
#X obj 259 100 nbx 3 15 0 10000 0 1 empty empty ch2 40 8 0 10 #bbbbbb
#000000 #000000 88 256;
#X obj 100 311 pack f f f;
#X obj 223 279 t b f;
#X obj 259 279 t b f;
#X obj 259 172 * 0.01;
#X obj 223 194 * 0.01;
#X obj 100 356 s \$0-to;
#X msg 100 333 par_channel 2 \$1 \$2 \$3;
#X connect 0 0 1 0;
#X connect 0 1 1 1;
#X connect 1 0 3 0;
#X connect 2 0 8 0;
#X connect 2 0 14 0;
#X connect 3 0 2 0;
#X connect 3 1 2 1;
#X connect 4 0 1 0;
#X connect 5 0 2 0;
#X connect 6 0 7 0;
#X connect 8 0 6 0;
#X connect 9 0 5 0;
#X connect 10 0 4 0;
#X connect 11 0 0 0;
#X connect 12 0 18 0;
#X connect 13 0 17 0;
#X connect 14 0 20 0;
#X connect 15 0 14 0;
#X connect 15 1 14 1;
#X connect 16 0 14 0;
#X connect 16 1 14 2;
#X connect 17 0 16 0;
#X connect 18 0 15 0;
#X connect 20 0 19 0;
#X coords 0 -1 1 1 232 15 2 100 100;
#X restore 661 256 pd color;
#N canvas 44 271 449 468 color 0;
#X obj 172 149 t b f;
#X obj 172 172 +;
#X obj 100 210 +;
#X obj 172 192 t b f;
#X obj 136 149 << 8;
#X obj 100 149 << 16;
#X msg 208 246 color \$1 \$1 \$1;
#X obj 208 100 tgl 15 0 s r empty 17 7 0 10 #0175fe #0175fe #0175fe
0 1;
#X obj 154 228 * -1;
#X obj 100 100 nbx 3 15 1 255 0 1 empty empty empty 0 -8 0 10 #fcc4c4
#000000 #000000 1 256;
#X obj 136 100 nbx 3 15 1 255 0 1 empty empty empty 0 -8 0 10 #c4fcc4
#000000 #000000 117 256;
#X obj 172 100 nbx 3 15 1 255 0 1 empty empty empty 0 -8 0 10 #c4fcfc
#000000 #000000 255 256;
#X obj 223 100 nbx 3 15 0 100 0 1 empty empty empty 0 -8 0 10 #fcfcfc
#000000 #000000 73 256;
#X obj 259 100 nbx 3 15 0 10000 0 1 empty empty ch3 40 8 0 10 #bbbbbb
#000000 #000000 164 256;
#X obj 100 311 pack f f f;
#X obj 223 279 t b f;
#X obj 259 279 t b f;
#X obj 259 172 * 0.01;
#X obj 223 194 * 0.01;
#X obj 100 356 s \$0-to;
#X msg 100 333 par_channel 3 \$1 \$2 \$3;
#X connect 0 0 1 0;
#X connect 0 1 1 1;
#X connect 1 0 3 0;
#X connect 2 0 8 0;
#X connect 2 0 14 0;
#X connect 3 0 2 0;
#X connect 3 1 2 1;
#X connect 4 0 1 0;
#X connect 5 0 2 0;
#X connect 6 0 7 0;
#X connect 8 0 6 0;
#X connect 9 0 5 0;
#X connect 10 0 4 0;
#X connect 11 0 0 0;
#X connect 12 0 18 0;
#X connect 13 0 17 0;
#X connect 14 0 20 0;
#X connect 15 0 14 0;
#X connect 15 1 14 1;
#X connect 16 0 14 0;
#X connect 16 1 14 2;
#X connect 17 0 16 0;
#X connect 18 0 15 0;
#X connect 20 0 19 0;
#X coords 0 -1 1 1 232 15 2 100 100;
#X restore 661 271 pd color;
#N canvas 639 171 297 564 generator 0;
#X obj -21 458 outlet~;
#X obj -22 126 phasor~;
#X obj 102 112 nbx 4 14 -1e+37 1e+37 0 1 empty empty freq 0 -6 0 10
#fcfcfc #000000 #000000 15 256;
#X obj 102 128 vradio 12 1 1 6 empty empty empty 0 -8 0 10 #fcfcfc
#000000 #000000 2;
#X text 113 125 _sin;
#X text 113 137 _tri;
#X text 113 149 _saw;
#X text 113 161 _pls;
#X text 113 173 _nsi;
#X text 113 185 _ramp;
#N canvas 768 329 450 300 switch............ 0;
#X obj 35 24 inlet~;
#X obj 34 95 *~ 0;
#X obj 55 67 == 0;
#X obj 33 193 outlet~;
#X obj 365 28 inlet;
#X obj 85 24 inlet~;
#X obj 84 95 *~ 0;
#X obj 135 24 inlet~;
#X obj 134 95 *~ 0;
#X obj 195 24 inlet~;
#X obj 194 95 *~ 0;
#X obj 245 24 inlet~;
#X obj 244 95 *~ 0;
#X obj 105 67 == 1;
#X obj 155 67 == 2;
#X obj 215 67 == 3;
#X obj 265 67 == 4;
#X obj 295 24 inlet~;
#X obj 294 95 *~ 0;
#X obj 315 67 == 5;
#X connect 0 0 1 0;
#X connect 1 0 3 0;
#X connect 2 0 1 1;
#X connect 4 0 2 0;
#X connect 4 0 13 0;
#X connect 4 0 14 0;
#X connect 4 0 15 0;
#X connect 4 0 16 0;
#X connect 4 0 19 0;
#X connect 5 0 6 0;
#X connect 6 0 3 0;
#X connect 7 0 8 0;
#X connect 8 0 3 0;
#X connect 9 0 10 0;
#X connect 10 0 3 0;
#X connect 11 0 12 0;
#X connect 12 0 3 0;
#X connect 13 0 6 1;
#X connect 14 0 8 1;
#X connect 15 0 10 1;
#X connect 16 0 12 1;
#X connect 17 0 18 0;
#X connect 18 0 3 0;
#X connect 19 0 18 1;
#X restore -21 395 pd switch............;
#X obj -22 263 cos~;
#N canvas 614 365 450 300 tri 0;
#X obj 141 24 inlet~;
#X obj 139 201 outlet~;
#X obj 140 82 -~ 0.5;
#X obj 140 118 abs~;
#X obj 140 141 *~ 4;
#X obj 140 166 -~ 1;
#X connect 0 0 2 0;
#X connect 2 0 3 0;
#X connect 3 0 4 0;
#X connect 4 0 5 0;
#X connect 5 0 1 0;
#X restore -1 284 pd tri;
#N canvas 612 358 450 300 saw 0;
#X obj 141 24 inlet~;
#X obj 139 201 outlet~;
#X obj 140 82 -~ 0.5;
#X obj 140 141 *~ 2;
#X connect 0 0 2 0;
#X connect 2 0 3 0;
#X connect 3 0 1 0;
#X restore 19 314 pd saw;
#X obj 102 211 nbx 4 14 -100 100 0 1 empty empty pw 0 -6 0 10 #fcfcfc
#000000 #000000 1 256;
#N canvas 187 372 450 300 pls 0;
#X obj 141 24 inlet~;
#X obj 139 201 outlet~;
#X obj 140 115 *~ 100;
#X obj 140 153 clip~ -1 1;
#X obj 140 82 +~ 0;
#X obj 239 65 + -0.5;
#X obj 239 18 inlet;
#X obj 239 44 * 0.005;
#X connect 0 0 4 0;
#X connect 2 0 3 0;
#X connect 3 0 1 0;
#X connect 4 0 2 0;
#X connect 5 0 4 1;
#X connect 6 0 7 0;
#X connect 7 0 5 0;
#X restore 39 338 pd pls;
#X obj 60 364 noise~;
#X obj -20 435 *~ 0;
#X obj 102 236 nbx 4 14 -100 100 0 1 empty empty amp 0 -6 0 10 #fcfcfc
#000000 #000000 100 256;
#X obj 102 418 * 0.01;
#X connect 1 0 10 5;
#X connect 1 0 11 0;
#X connect 1 0 12 0;
#X connect 1 0 13 0;
#X connect 1 0 15 0;
#X connect 2 0 1 0;
#X connect 3 0 10 6;
#X connect 10 0 17 0;
#X connect 11 0 10 0;
#X connect 12 0 10 1;
#X connect 13 0 10 2;
#X connect 14 0 15 1;
#X connect 15 0 10 3;
#X connect 16 0 10 4;
#X connect 17 0 0 0;
#X connect 18 0 19 0;
#X connect 19 0 17 1;
#X coords 0 -1 1 1 49 153 2 100 100;
#X restore 165 46 pd generator;
#N canvas 639 144 297 564 generator 0;
#X obj -21 458 outlet~;
#X obj -22 126 phasor~;
#X obj 102 112 nbx 4 14 -1e+37 1e+37 0 1 empty empty freq 0 -6 0 10
#fcfcfc #000000 #000000 60.0899 256;
#X obj 102 128 vradio 12 1 1 6 empty empty empty 0 -8 0 10 #fcfcfc
#000000 #000000 3;
#X text 113 125 _sin;
#X text 113 137 _tri;
#X text 113 149 _saw;
#X text 113 161 _pls;
#X text 113 173 _nsi;
#X text 113 185 _ramp;
#N canvas 768 329 450 300 switch............ 0;
#X obj 35 24 inlet~;
#X obj 34 95 *~ 0;
#X obj 55 67 == 0;
#X obj 33 193 outlet~;
#X obj 365 28 inlet;
#X obj 85 24 inlet~;
#X obj 84 95 *~ 0;
#X obj 135 24 inlet~;
#X obj 134 95 *~ 0;
#X obj 195 24 inlet~;
#X obj 194 95 *~ 0;
#X obj 245 24 inlet~;
#X obj 244 95 *~ 0;
#X obj 105 67 == 1;
#X obj 155 67 == 2;
#X obj 215 67 == 3;
#X obj 265 67 == 4;
#X obj 295 24 inlet~;
#X obj 294 95 *~ 0;
#X obj 315 67 == 5;
#X connect 0 0 1 0;
#X connect 1 0 3 0;
#X connect 2 0 1 1;
#X connect 4 0 2 0;
#X connect 4 0 13 0;
#X connect 4 0 14 0;
#X connect 4 0 15 0;
#X connect 4 0 16 0;
#X connect 4 0 19 0;
#X connect 5 0 6 0;
#X connect 6 0 3 0;
#X connect 7 0 8 0;
#X connect 8 0 3 0;
#X connect 9 0 10 0;
#X connect 10 0 3 0;
#X connect 11 0 12 0;
#X connect 12 0 3 0;
#X connect 13 0 6 1;
#X connect 14 0 8 1;
#X connect 15 0 10 1;
#X connect 16 0 12 1;
#X connect 17 0 18 0;
#X connect 18 0 3 0;
#X connect 19 0 18 1;
#X restore -21 395 pd switch............;
#X obj -22 263 cos~;
#N canvas 614 365 450 300 tri 0;
#X obj 141 24 inlet~;
#X obj 139 201 outlet~;
#X obj 140 82 -~ 0.5;
#X obj 140 118 abs~;
#X obj 140 141 *~ 4;
#X obj 140 166 -~ 1;
#X connect 0 0 2 0;
#X connect 2 0 3 0;
#X connect 3 0 4 0;
#X connect 4 0 5 0;
#X connect 5 0 1 0;
#X restore -1 284 pd tri;
#N canvas 612 358 450 300 saw 0;
#X obj 141 24 inlet~;
#X obj 139 201 outlet~;
#X obj 140 82 -~ 0.5;
#X obj 140 141 *~ 2;
#X connect 0 0 2 0;
#X connect 2 0 3 0;
#X connect 3 0 1 0;
#X restore 19 314 pd saw;
#X obj 102 211 nbx 4 14 -100 100 0 1 empty empty pw 0 -6 0 10 #fcfcfc
#000000 #000000 -32 256;
#N canvas 187 372 450 300 pls 0;
#X obj 141 24 inlet~;
#X obj 139 201 outlet~;
#X obj 140 115 *~ 100;
#X obj 140 153 clip~ -1 1;
#X obj 140 82 +~ 0;
#X obj 239 65 + -0.5;
#X obj 239 18 inlet;
#X obj 239 44 * 0.005;
#X connect 0 0 4 0;
#X connect 2 0 3 0;
#X connect 3 0 1 0;
#X connect 4 0 2 0;
#X connect 5 0 4 1;
#X connect 6 0 7 0;
#X connect 7 0 5 0;
#X restore 39 338 pd pls;
#X obj 60 364 noise~;
#X obj -20 435 *~ 0;
#X obj 102 236 nbx 4 14 -100 100 0 1 empty empty amp 0 -6 0 10 #fcfcfc
#000000 #000000 96 256;
#X obj 102 418 * 0.01;
#X connect 1 0 10 5;
#X connect 1 0 11 0;
#X connect 1 0 12 0;
#X connect 1 0 13 0;
#X connect 1 0 15 0;
#X connect 2 0 1 0;
#X connect 3 0 10 6;
#X connect 10 0 17 0;
#X connect 11 0 10 0;
#X connect 12 0 10 1;
#X connect 13 0 10 2;
#X connect 14 0 15 1;
#X connect 15 0 10 3;
#X connect 16 0 10 4;
#X connect 17 0 0 0;
#X connect 18 0 19 0;
#X connect 19 0 17 1;
#X coords 0 -1 1 1 49 153 2 100 100;
#X restore 233 46 pd generator;
#X obj 185 218 * 0.01;
#X obj 164 236 +~ 0;
#X obj 185 202 nbx 4 14 -9999 9999 0 1 empty empty empty 52 6 0 10
#fcfcfc #000000 #000000 0 256;
#X obj 253 218 * 0.01;
#X obj 232 236 +~ 0;
#X obj 253 202 nbx 4 14 -9999 9999 0 1 empty empty empty 52 6 0 10
#fcfcfc #000000 #000000 0 256;
#N canvas 639 171 297 564 generator 0;
#X obj -21 458 outlet~;
#X obj -22 126 phasor~;
#X obj 102 112 nbx 4 14 -1e+37 1e+37 0 1 empty empty freq 0 -6 0 10
#fcfcfc #000000 #000000 30 256;
#X obj 102 128 vradio 12 1 1 6 empty empty empty 0 -8 0 10 #fcfcfc
#000000 #000000 1;
#X text 113 125 _sin;
#X text 113 137 _tri;
#X text 113 149 _saw;
#X text 113 161 _pls;
#X text 113 173 _nsi;
#X text 113 185 _ramp;
#N canvas 768 329 450 300 switch............ 0;
#X obj 35 24 inlet~;
#X obj 34 95 *~ 0;
#X obj 55 67 == 0;
#X obj 33 193 outlet~;
#X obj 365 28 inlet;
#X obj 85 24 inlet~;
#X obj 84 95 *~ 0;
#X obj 135 24 inlet~;
#X obj 134 95 *~ 0;
#X obj 195 24 inlet~;
#X obj 194 95 *~ 0;
#X obj 245 24 inlet~;
#X obj 244 95 *~ 0;
#X obj 105 67 == 1;
#X obj 155 67 == 2;
#X obj 215 67 == 3;
#X obj 265 67 == 4;
#X obj 295 24 inlet~;
#X obj 294 95 *~ 0;
#X obj 315 67 == 5;
#X connect 0 0 1 0;
#X connect 1 0 3 0;
#X connect 2 0 1 1;
#X connect 4 0 2 0;
#X connect 4 0 13 0;
#X connect 4 0 14 0;
#X connect 4 0 15 0;
#X connect 4 0 16 0;
#X connect 4 0 19 0;
#X connect 5 0 6 0;
#X connect 6 0 3 0;
#X connect 7 0 8 0;
#X connect 8 0 3 0;
#X connect 9 0 10 0;
#X connect 10 0 3 0;
#X connect 11 0 12 0;
#X connect 12 0 3 0;
#X connect 13 0 6 1;
#X connect 14 0 8 1;
#X connect 15 0 10 1;
#X connect 16 0 12 1;
#X connect 17 0 18 0;
#X connect 18 0 3 0;
#X connect 19 0 18 1;
#X restore -21 395 pd switch............;
#X obj -22 263 cos~;
#N canvas 614 365 450 300 tri 0;
#X obj 141 24 inlet~;
#X obj 139 201 outlet~;
#X obj 140 82 -~ 0.5;
#X obj 140 118 abs~;
#X obj 140 141 *~ 4;
#X obj 140 166 -~ 1;
#X connect 0 0 2 0;
#X connect 2 0 3 0;
#X connect 3 0 4 0;
#X connect 4 0 5 0;
#X connect 5 0 1 0;
#X restore -1 284 pd tri;
#N canvas 612 358 450 300 saw 0;
#X obj 141 24 inlet~;
#X obj 139 201 outlet~;
#X obj 140 82 -~ 0.5;
#X obj 140 141 *~ 2;
#X connect 0 0 2 0;
#X connect 2 0 3 0;
#X connect 3 0 1 0;
#X restore 19 314 pd saw;
#X obj 102 211 nbx 4 14 -100 100 0 1 empty empty pw 0 -6 0 10 #fcfcfc
#000000 #000000 1 256;
#N canvas 187 372 450 300 pls 0;
#X obj 141 24 inlet~;
#X obj 139 201 outlet~;
#X obj 140 115 *~ 100;
#X obj 140 153 clip~ -1 1;
#X obj 140 82 +~ 0;
#X obj 239 65 + -0.5;
#X obj 239 18 inlet;
#X obj 239 44 * 0.005;
#X connect 0 0 4 0;
#X connect 2 0 3 0;
#X connect 3 0 1 0;
#X connect 4 0 2 0;
#X connect 5 0 4 1;
#X connect 6 0 7 0;
#X connect 7 0 5 0;
#X restore 39 338 pd pls;
#X obj 60 364 noise~;
#X obj -20 435 *~ 0;
#X obj 102 236 nbx 4 14 -100 100 0 1 empty empty amp 0 -6 0 10 #fcfcfc
#000000 #000000 82 256;
#X obj 102 418 * 0.01;
#X connect 1 0 10 5;
#X connect 1 0 11 0;
#X connect 1 0 12 0;
#X connect 1 0 13 0;
#X connect 1 0 15 0;
#X connect 2 0 1 0;
#X connect 3 0 10 6;
#X connect 10 0 17 0;
#X connect 11 0 10 0;
#X connect 12 0 10 1;
#X connect 13 0 10 2;
#X connect 14 0 15 1;
#X connect 15 0 10 3;
#X connect 16 0 10 4;
#X connect 17 0 0 0;
#X connect 18 0 19 0;
#X connect 19 0 17 1;
#X coords 0 -1 1 1 49 153 2 100 100;
#X restore 300 46 pd generator;
#N canvas 639 144 297 564 generator 0;
#X obj -21 458 outlet~;
#X obj -22 126 phasor~;
#X obj 102 112 nbx 4 14 -1e+37 1e+37 0 1 empty empty freq 0 -6 0 10
#fcfcfc #000000 #000000 89.95 256;
#X obj 102 128 vradio 12 1 1 6 empty empty empty 0 -8 0 10 #fcfcfc
#000000 #000000 1;
#X text 113 125 _sin;
#X text 113 137 _tri;
#X text 113 149 _saw;
#X text 113 161 _pls;
#X text 113 173 _nsi;
#X text 113 185 _ramp;
#N canvas 768 329 450 300 switch............ 0;
#X obj 35 24 inlet~;
#X obj 34 95 *~ 0;
#X obj 55 67 == 0;
#X obj 33 193 outlet~;
#X obj 365 28 inlet;
#X obj 85 24 inlet~;
#X obj 84 95 *~ 0;
#X obj 135 24 inlet~;
#X obj 134 95 *~ 0;
#X obj 195 24 inlet~;
#X obj 194 95 *~ 0;
#X obj 245 24 inlet~;
#X obj 244 95 *~ 0;
#X obj 105 67 == 1;
#X obj 155 67 == 2;
#X obj 215 67 == 3;
#X obj 265 67 == 4;
#X obj 295 24 inlet~;
#X obj 294 95 *~ 0;
#X obj 315 67 == 5;
#X connect 0 0 1 0;
#X connect 1 0 3 0;
#X connect 2 0 1 1;
#X connect 4 0 2 0;
#X connect 4 0 13 0;
#X connect 4 0 14 0;
#X connect 4 0 15 0;
#X connect 4 0 16 0;
#X connect 4 0 19 0;
#X connect 5 0 6 0;
#X connect 6 0 3 0;
#X connect 7 0 8 0;
#X connect 8 0 3 0;
#X connect 9 0 10 0;
#X connect 10 0 3 0;
#X connect 11 0 12 0;
#X connect 12 0 3 0;
#X connect 13 0 6 1;
#X connect 14 0 8 1;
#X connect 15 0 10 1;
#X connect 16 0 12 1;
#X connect 17 0 18 0;
#X connect 18 0 3 0;
#X connect 19 0 18 1;
#X restore -21 395 pd switch............;
#X obj -22 263 cos~;
#N canvas 614 365 450 300 tri 0;
#X obj 141 24 inlet~;
#X obj 139 201 outlet~;
#X obj 140 82 -~ 0.5;
#X obj 140 118 abs~;
#X obj 140 141 *~ 4;
#X obj 140 166 -~ 1;
#X connect 0 0 2 0;
#X connect 2 0 3 0;
#X connect 3 0 4 0;
#X connect 4 0 5 0;
#X connect 5 0 1 0;
#X restore -1 284 pd tri;
#N canvas 612 358 450 300 saw 0;
#X obj 141 24 inlet~;
#X obj 139 201 outlet~;
#X obj 140 82 -~ 0.5;
#X obj 140 141 *~ 2;
#X connect 0 0 2 0;
#X connect 2 0 3 0;
#X connect 3 0 1 0;
#X restore 19 314 pd saw;
#X obj 102 211 nbx 4 14 -100 100 0 1 empty empty pw 0 -6 0 10 #fcfcfc
#000000 #000000 -32 256;
#N canvas 187 372 450 300 pls 0;
#X obj 141 24 inlet~;
#X obj 139 201 outlet~;
#X obj 140 115 *~ 100;
#X obj 140 153 clip~ -1 1;
#X obj 140 82 +~ 0;
#X obj 239 65 + -0.5;
#X obj 239 18 inlet;
#X obj 239 44 * 0.005;
#X connect 0 0 4 0;
#X connect 2 0 3 0;
#X connect 3 0 1 0;
#X connect 4 0 2 0;
#X connect 5 0 4 1;
#X connect 6 0 7 0;
#X connect 7 0 5 0;
#X restore 39 338 pd pls;
#X obj 60 364 noise~;
#X obj -20 435 *~ 0;
#X obj 102 236 nbx 4 14 -100 100 0 1 empty empty amp 0 -6 0 10 #fcfcfc
#000000 #000000 73 256;
#X obj 102 418 * 0.01;
#X connect 1 0 10 5;
#X connect 1 0 11 0;
#X connect 1 0 12 0;
#X connect 1 0 13 0;
#X connect 1 0 15 0;
#X connect 2 0 1 0;
#X connect 3 0 10 6;
#X connect 10 0 17 0;
#X connect 11 0 10 0;
#X connect 12 0 10 1;
#X connect 13 0 10 2;
#X connect 14 0 15 1;
#X connect 15 0 10 3;
#X connect 16 0 10 4;
#X connect 17 0 0 0;
#X connect 18 0 19 0;
#X connect 19 0 17 1;
#X coords 0 -1 1 1 49 153 2 100 100;
#X restore 369 46 pd generator;
#X obj 320 218 * 0.01;
#X obj 299 236 +~ 0;
#X obj 320 202 nbx 4 14 -9999 9999 0 1 empty empty empty 52 6 0 10
#fcfcfc #000000 #000000 0 256;
#X obj 389 218 * 0.01;
#X obj 368 236 +~ 0;
#X obj 389 202 nbx 4 14 -9999 9999 0 1 empty empty empty 52 6 0 10
#fcfcfc #000000 #000000 0 256;
#N canvas 639 171 297 564 generator 0;
#X obj -21 458 outlet~;
#X obj -22 126 phasor~;
#X obj 102 112 nbx 4 14 -1e+37 1e+37 0 1 empty empty freq 0 -6 0 10
#fcfcfc #000000 #000000 60 256;
#X obj 102 128 vradio 12 1 1 6 empty empty empty 0 -8 0 10 #fcfcfc
#000000 #000000 1;
#X text 113 125 _sin;
#X text 113 137 _tri;
#X text 113 149 _saw;
#X text 113 161 _pls;
#X text 113 173 _nsi;
#X text 113 185 _ramp;
#N canvas 768 329 450 300 switch............ 0;
#X obj 35 24 inlet~;
#X obj 34 95 *~ 0;
#X obj 55 67 == 0;
#X obj 33 193 outlet~;
#X obj 365 28 inlet;
#X obj 85 24 inlet~;
#X obj 84 95 *~ 0;
#X obj 135 24 inlet~;
#X obj 134 95 *~ 0;
#X obj 195 24 inlet~;
#X obj 194 95 *~ 0;
#X obj 245 24 inlet~;
#X obj 244 95 *~ 0;
#X obj 105 67 == 1;
#X obj 155 67 == 2;
#X obj 215 67 == 3;
#X obj 265 67 == 4;
#X obj 295 24 inlet~;
#X obj 294 95 *~ 0;
#X obj 315 67 == 5;
#X connect 0 0 1 0;
#X connect 1 0 3 0;
#X connect 2 0 1 1;
#X connect 4 0 2 0;
#X connect 4 0 13 0;
#X connect 4 0 14 0;
#X connect 4 0 15 0;
#X connect 4 0 16 0;
#X connect 4 0 19 0;
#X connect 5 0 6 0;
#X connect 6 0 3 0;
#X connect 7 0 8 0;
#X connect 8 0 3 0;
#X connect 9 0 10 0;
#X connect 10 0 3 0;
#X connect 11 0 12 0;
#X connect 12 0 3 0;
#X connect 13 0 6 1;
#X connect 14 0 8 1;
#X connect 15 0 10 1;
#X connect 16 0 12 1;
#X connect 17 0 18 0;
#X connect 18 0 3 0;
#X connect 19 0 18 1;
#X restore -21 395 pd switch............;
#X obj -22 263 cos~;
#N canvas 614 365 450 300 tri 0;
#X obj 141 24 inlet~;
#X obj 139 201 outlet~;
#X obj 140 82 -~ 0.5;
#X obj 140 118 abs~;
#X obj 140 141 *~ 4;
#X obj 140 166 -~ 1;
#X connect 0 0 2 0;
#X connect 2 0 3 0;
#X connect 3 0 4 0;
#X connect 4 0 5 0;
#X connect 5 0 1 0;
#X restore -1 284 pd tri;
#N canvas 612 358 450 300 saw 0;
#X obj 141 24 inlet~;
#X obj 139 201 outlet~;
#X obj 140 82 -~ 0.5;
#X obj 140 141 *~ 2;
#X connect 0 0 2 0;
#X connect 2 0 3 0;
#X connect 3 0 1 0;
#X restore 19 314 pd saw;
#X obj 102 211 nbx 4 14 -100 100 0 1 empty empty pw 0 -6 0 10 #fcfcfc
#000000 #000000 1 256;
#N canvas 187 372 450 300 pls 0;
#X obj 141 24 inlet~;
#X obj 139 201 outlet~;
#X obj 140 115 *~ 100;
#X obj 140 153 clip~ -1 1;
#X obj 140 82 +~ 0;
#X obj 239 65 + -0.5;
#X obj 239 18 inlet;
#X obj 239 44 * 0.005;
#X connect 0 0 4 0;
#X connect 2 0 3 0;
#X connect 3 0 1 0;
#X connect 4 0 2 0;
#X connect 5 0 4 1;
#X connect 6 0 7 0;
#X connect 7 0 5 0;
#X restore 39 338 pd pls;
#X obj 60 364 noise~;
#X obj -20 435 *~ 0;
#X obj 102 236 nbx 4 14 -100 100 0 1 empty empty amp 0 -6 0 10 #fcfcfc
#000000 #000000 94 256;
#X obj 102 418 * 0.01;
#X connect 1 0 10 5;
#X connect 1 0 11 0;
#X connect 1 0 12 0;
#X connect 1 0 13 0;
#X connect 1 0 15 0;
#X connect 2 0 1 0;
#X connect 3 0 10 6;
#X connect 10 0 17 0;
#X connect 11 0 10 0;
#X connect 12 0 10 1;
#X connect 13 0 10 2;
#X connect 14 0 15 1;
#X connect 15 0 10 3;
#X connect 16 0 10 4;
#X connect 17 0 0 0;
#X connect 18 0 19 0;
#X connect 19 0 17 1;
#X coords 0 -1 1 1 49 153 2 100 100;
#X restore 437 46 pd generator;
#N canvas 639 144 297 564 generator 0;
#X obj -21 458 outlet~;
#X obj -22 126 phasor~;
#X obj 102 112 nbx 4 14 -1e+37 1e+37 0 1 empty empty freq 0 -6 0 10
#fcfcfc #000000 #000000 60.12 256;
#X obj 102 128 vradio 12 1 1 6 empty empty empty 0 -8 0 10 #fcfcfc
#000000 #000000 0;
#X text 113 125 _sin;
#X text 113 137 _tri;
#X text 113 149 _saw;
#X text 113 161 _pls;
#X text 113 173 _nsi;
#X text 113 185 _ramp;
#N canvas 768 329 450 300 switch............ 0;
#X obj 35 24 inlet~;
#X obj 34 95 *~ 0;
#X obj 55 67 == 0;
#X obj 33 193 outlet~;
#X obj 365 28 inlet;
#X obj 85 24 inlet~;
#X obj 84 95 *~ 0;
#X obj 135 24 inlet~;
#X obj 134 95 *~ 0;
#X obj 195 24 inlet~;
#X obj 194 95 *~ 0;
#X obj 245 24 inlet~;
#X obj 244 95 *~ 0;
#X obj 105 67 == 1;
#X obj 155 67 == 2;
#X obj 215 67 == 3;
#X obj 265 67 == 4;
#X obj 295 24 inlet~;
#X obj 294 95 *~ 0;
#X obj 315 67 == 5;
#X connect 0 0 1 0;
#X connect 1 0 3 0;
#X connect 2 0 1 1;
#X connect 4 0 2 0;
#X connect 4 0 13 0;
#X connect 4 0 14 0;
#X connect 4 0 15 0;
#X connect 4 0 16 0;
#X connect 4 0 19 0;
#X connect 5 0 6 0;
#X connect 6 0 3 0;
#X connect 7 0 8 0;
#X connect 8 0 3 0;
#X connect 9 0 10 0;
#X connect 10 0 3 0;
#X connect 11 0 12 0;
#X connect 12 0 3 0;
#X connect 13 0 6 1;
#X connect 14 0 8 1;
#X connect 15 0 10 1;
#X connect 16 0 12 1;
#X connect 17 0 18 0;
#X connect 18 0 3 0;
#X connect 19 0 18 1;
#X restore -21 395 pd switch............;
#X obj -22 263 cos~;
#N canvas 614 365 450 300 tri 0;
#X obj 141 24 inlet~;
#X obj 139 201 outlet~;
#X obj 140 82 -~ 0.5;
#X obj 140 118 abs~;
#X obj 140 141 *~ 4;
#X obj 140 166 -~ 1;
#X connect 0 0 2 0;
#X connect 2 0 3 0;
#X connect 3 0 4 0;
#X connect 4 0 5 0;
#X connect 5 0 1 0;
#X restore -1 284 pd tri;
#N canvas 612 358 450 300 saw 0;
#X obj 141 24 inlet~;
#X obj 139 201 outlet~;
#X obj 140 82 -~ 0.5;
#X obj 140 141 *~ 2;
#X connect 0 0 2 0;
#X connect 2 0 3 0;
#X connect 3 0 1 0;
#X restore 19 314 pd saw;
#X obj 102 211 nbx 4 14 -100 100 0 1 empty empty pw 0 -6 0 10 #fcfcfc
#000000 #000000 -32 256;
#N canvas 187 372 450 300 pls 0;
#X obj 141 24 inlet~;
#X obj 139 201 outlet~;
#X obj 140 115 *~ 100;
#X obj 140 153 clip~ -1 1;
#X obj 140 82 +~ 0;
#X obj 239 65 + -0.5;
#X obj 239 18 inlet;
#X obj 239 44 * 0.005;
#X connect 0 0 4 0;
#X connect 2 0 3 0;
#X connect 3 0 1 0;
#X connect 4 0 2 0;
#X connect 5 0 4 1;
#X connect 6 0 7 0;
#X connect 7 0 5 0;
#X restore 39 338 pd pls;
#X obj 60 364 noise~;
#X obj -20 435 *~ 0;
#X obj 102 236 nbx 4 14 -100 100 0 1 empty empty amp 0 -6 0 10 #fcfcfc
#000000 #000000 48 256;
#X obj 102 418 * 0.01;
#X connect 1 0 10 5;
#X connect 1 0 11 0;
#X connect 1 0 12 0;
#X connect 1 0 13 0;
#X connect 1 0 15 0;
#X connect 2 0 1 0;
#X connect 3 0 10 6;
#X connect 10 0 17 0;
#X connect 11 0 10 0;
#X connect 12 0 10 1;
#X connect 13 0 10 2;
#X connect 14 0 15 1;
#X connect 15 0 10 3;
#X connect 16 0 10 4;
#X connect 17 0 0 0;
#X connect 18 0 19 0;
#X connect 19 0 17 1;
#X coords 0 -1 1 1 49 153 2 100 100;
#X restore 506 46 pd generator;
#X obj 457 218 * 0.01;
#X obj 436 236 +~ 0;
#X obj 457 202 nbx 4 14 -9999 9999 0 1 empty empty empty 52 6 0 10
#fcfcfc #000000 #000000 0 256;
#X obj 526 218 * 0.01;
#X obj 505 236 +~ 0;
#X obj 526 202 nbx 4 14 -9999 9999 0 1 empty empty empty 52 6 0 10
#fcfcfc #000000 #000000 0 256;
#X text 65 16 -ch0-;
#X text 205 16 -ch1-;
#X text 344 16 -ch2-;
#X text 475 17 -ch3-;
#N canvas 260 155 799 455 old/save 0;
#X obj 240 341 s \$0-to;
#X obj 317 164 s \$0-to;
#N canvas 222 282 533 423 rec 0;
#X obj 102 102 tgl 17 0 empty empty rec 17 7 0 10 #fcc4c4 #000000 #000000
0 1;
#X obj 102 163 metro;
#X floatatom 140 102 5 0 100000 1 time(ms) - - 0;
#X obj 102 199 i;
#X obj 142 199 + 1;
#X msg 162 177 0;
#X floatatom 102 224 5 0 0 0 - - - 0;
#X obj 102 260 moses;
#X floatatom 226 102 5 0 9999 1 frames - - 0;
#X msg 149 278 0;
#X obj 102 358 outlet;
#X obj 102 125 t f b;
#X obj 102 318 makefilename %d.tga;
#X obj 238 155 t f b;
#X msg 226 266 set %08d.tga;
#X connect 0 0 11 0;
#X connect 1 0 3 0;
#X connect 2 0 1 1;
#X connect 3 0 4 0;
#X connect 3 0 6 0;
#X connect 4 0 3 1;
#X connect 5 0 3 1;
#X connect 6 0 7 0;
#X connect 7 0 12 0;
#X connect 7 1 9 0;
#X connect 8 0 13 0;
#X connect 9 0 0 0;
#X connect 11 0 1 0;
#X connect 11 1 5 0;
#X connect 12 0 10 0;
#X connect 13 0 7 1;
#X connect 13 1 14 0;
#X connect 14 0 12 0;
#X coords 0 -1 1 1 200 21 2 100 100;
#X restore 284 217 pd rec;
#X text 327 77 Save image:;
#X msg 317 109 save ./image0.png;
#X text 305 191 Record sequence:;
#X msg 317 127 save /image1.png;
#X obj 284 262 s \$0-to;
#X msg 284 241 save /run/tmp/\$1;
#X text 204 292 Get info about video:;
#X msg 317 145 save ./screen.tga;
#X msg 240 321 gi;
#X obj 230 163 bng 15 250 50 0 empty empty save_ok. 17 7 0 10 #c4fcc4
#00fc04 #000000;
#X obj 191 178 bng 15 250 50 0 empty empty save_error. 17 7 0 10 #fcc4c4
#fc0400 #000000;
#X obj 191 143 moses 1;
#X obj 191 102 r \$0-from;
#X obj 191 123 route size;
#X connect 2 0 8 0;
#X connect 4 0 1 0;
#X connect 6 0 1 0;
#X connect 8 0 7 0;
#X connect 10 0 1 0;
#X connect 11 0 0 0;
#X connect 14 0 13 0;
#X connect 14 1 12 0;
#X connect 15 0 16 0;
#X connect 16 0 14 0;
#X restore 27 328 pd old/save;
#X obj 27 285 n_sxy~ 4, f 80;
#N canvas 0 16 450 300 (subpatch) 0;
#X obj 100 100 tgl 15 1 empty empty on_ch0 24 8 0 10 #fcfcfc #000000
#000000 0 1;
#X obj 100 135 s \$0-to;
#X msg 100 117 on 0 \$1;
#X connect 0 0 2 0;
#X connect 2 0 1 0;
#X coords 0 -1 1 1 232 15 2 100 100;
#X restore 661 286 pd;
#N canvas 0 16 450 300 (subpatch) 0;
#X obj 100 100 tgl 15 1 empty empty on_ch1 24 8 0 10 #fcfcfc #000000
#000000 1 1;
#X obj 100 135 s \$0-to;
#X msg 100 117 on 1 \$1;
#X connect 0 0 2 0;
#X connect 2 0 1 0;
#X coords 0 -1 1 1 232 15 2 100 100;
#X restore 661 301 pd;
#N canvas 0 16 450 300 (subpatch) 0;
#X obj 100 100 tgl 15 1 empty empty on_ch2 24 8 0 10 #fcfcfc #000000
#000000 0 1;
#X obj 100 135 s \$0-to;
#X msg 100 117 on 2 \$1;
#X connect 0 0 2 0;
#X connect 2 0 1 0;
#X coords 0 -1 1 1 232 15 2 100 100;
#X restore 661 316 pd;
#N canvas 0 16 450 300 (subpatch) 0;
#X obj 100 100 tgl 15 1 empty empty on_ch3 24 8 0 10 #fcfcfc #000000
#000000 0 1;
#X obj 100 135 s \$0-to;
#X msg 100 117 on 3 \$1;
#X connect 0 0 2 0;
#X connect 2 0 1 0;
#X coords 0 -1 1 1 232 15 2 100 100;
#X restore 661 331 pd;
#X connect 0 0 4 0;
#X connect 1 0 7 0;
#X connect 2 0 57 0;
#X connect 3 0 4 1;
#X connect 4 0 57 0;
#X connect 5 0 3 0;
#X connect 6 0 7 1;
#X connect 7 0 57 1;
#X connect 8 0 6 0;
#X connect 28 0 31 0;
#X connect 29 0 34 0;
#X connect 30 0 31 1;
#X connect 31 0 57 2;
#X connect 32 0 30 0;
#X connect 33 0 34 1;
#X connect 34 0 57 3;
#X connect 35 0 33 0;
#X connect 36 0 39 0;
#X connect 37 0 42 0;
#X connect 38 0 39 1;
#X connect 39 0 57 4;
#X connect 40 0 38 0;
#X connect 41 0 42 1;
#X connect 42 0 57 5;
#X connect 43 0 41 0;
#X connect 44 0 47 0;
#X connect 45 0 50 0;
#X connect 46 0 47 1;
#X connect 47 0 57 6;
#X connect 48 0 46 0;
#X connect 49 0 50 1;
#X connect 50 0 57 7;
#X connect 51 0 49 0;
#X connect 57 0 21 0;
#X coords 0 359 1 358 85 60 0;
